<?xml version="1.0" encoding="UTF-8" standalone="no"?>
<!-- Created with Inkscape (http://www.inkscape.org/) -->

<svg
   xmlns:dc="http://purl.org/dc/elements/1.1/"
   xmlns:cc="http://creativecommons.org/ns#"
   xmlns:rdf="http://www.w3.org/1999/02/22-rdf-syntax-ns#"
   xmlns:svg="http://www.w3.org/2000/svg"
   xmlns="http://www.w3.org/2000/svg"
   xmlns:sodipodi="http://sodipodi.sourceforge.net/DTD/sodipodi-0.dtd"
   xmlns:inkscape="http://www.inkscape.org/namespaces/inkscape"
   width="452.38699"
   height="96.166519"
   viewBox="0 0 452.38699 96.166519"
   id="svg2"
   version="1.1"
   inkscape:version="0.92.4 (5da689c313, 2019-01-14)"
   sodipodi:docname="AUX.svg"
   inkscape:export-filename="/home/markus/DeusO/Development/AUX/AUX.png"
   inkscape:export-xdpi="300"
   inkscape:export-ydpi="300">
  <defs
     id="defs" />
  <sodipodi:namedview
     id="base"
     pagecolor="#ffffff"
     bordercolor="#666666"
     borderopacity="1.0"
     inkscape:pageopacity="0.0"
     inkscape:pageshadow="2"
     inkscape:zoom="5.6568542"
     inkscape:cx="149.47115"
     inkscape:cy="84.454202"
     inkscape:document-units="px"
     inkscape:current-layer="svg2"
     showgrid="false"
     units="px"
     inkscape:window-width="3840"
     inkscape:window-height="2063"
     inkscape:window-x="0"
     inkscape:window-y="57"
     inkscape:window-maximized="1"
     inkscape:snap-bbox="true"
     inkscape:bbox-nodes="true"
     inkscape:object-paths="true"
     inkscape:object-nodes="true"
     inkscape:snap-smooth-nodes="true"
     inkscape:snap-object-midpoints="true"
     inkscape:snap-center="true"
     inkscape:snap-others="true"
     inkscape:snap-global="false"
     showguides="false"
     fit-margin-top="0"
     fit-margin-left="0"
     fit-margin-right="0"
     fit-margin-bottom="0">
    <inkscape:grid
       type="xygrid"
       id="grid1"
       empspacing="8"
       originx="-27.400434"
       originy="-49.376305" />
  </sodipodi:namedview>
  <metadata
     id="metadata">
    <rdf:RDF>
      <cc:Work
         rdf:about="">
        <dc:format>image/svg+xml</dc:format>
        <dc:type
           rdf:resource="http://purl.org/dc/dcmitype/StillImage" />
        <dc:title></dc:title>
      </cc:Work>
    </rdf:RDF>
  </metadata>
  <g
     inkscape:label="Ebene 1"
     inkscape:groupmode="layer"
     id="layer1"
     transform="translate(-27.400434,-110.45718)" />
  <rect
     y="4.4598708"
     x="0"
     height="90.055"
     width="90.054779"
     id="rect874"
     style="color:#000000;clip-rule:nonzero;display:inline;overflow:visible;visibility:visible;opacity:1;isolation:auto;mix-blend-mode:normal;color-interpolation:sRGB;color-interpolation-filters:linearRGB;solid-color:#000000;solid-opacity:1;vector-effect:none;fill:#ffffff;fill-opacity:1;fill-rule:nonzero;stroke:none;stroke-width:6.8325243;stroke-linecap:square;stroke-linejoin:round;stroke-miterlimit:4;stroke-dasharray:none;stroke-dashoffset:0;stroke-opacity:1;marker:none;paint-order:normal;color-rendering:auto;image-rendering:auto;shape-rendering:auto;text-rendering:auto;enable-background:accumulate"
     inkscape:export-xdpi="300"
     inkscape:export-ydpi="300" />
  <rect
     inkscape:export-ydpi="300"
     inkscape:export-xdpi="300"
     style="color:#000000;clip-rule:nonzero;display:inline;overflow:visible;visibility:visible;opacity:1;isolation:auto;mix-blend-mode:normal;color-interpolation:sRGB;color-interpolation-filters:linearRGB;solid-color:#000000;solid-opacity:1;vector-effect:none;fill:#ffffff;fill-opacity:1;fill-rule:nonzero;stroke:none;stroke-width:6.8325243;stroke-linecap:square;stroke-linejoin:round;stroke-miterlimit:4;stroke-dasharray:none;stroke-dashoffset:0;stroke-opacity:1;marker:none;paint-order:normal;color-rendering:auto;image-rendering:auto;shape-rendering:auto;text-rendering:auto;enable-background:accumulate"
     id="rect1619"
     width="449.30478"
     height="96.166519"
     x="0"
     y="0" />
  <rect
     y="0"
     x="269.40765"
     height="96.166519"
     width="182.97934"
     id="rect1621"
     style="color:#000000;clip-rule:nonzero;display:inline;overflow:visible;visibility:visible;opacity:1;isolation:auto;mix-blend-mode:normal;color-interpolation:sRGB;color-interpolation-filters:linearRGB;solid-color:#000000;solid-opacity:1;vector-effect:none;fill:#000000;fill-opacity:1;fill-rule:nonzero;stroke:none;stroke-width:4.36025333;stroke-linecap:square;stroke-linejoin:round;stroke-miterlimit:4;stroke-dasharray:none;stroke-dashoffset:0;stroke-opacity:1;marker:none;paint-order:normal;color-rendering:auto;image-rendering:auto;shape-rendering:auto;text-rendering:auto;enable-background:accumulate" />
  <g
     aria-label="AUX"
     style="font-style:normal;font-variant:normal;font-weight:normal;font-stretch:expanded;font-size:24px;line-height:100%;font-family:'Zurich BdEx BT';-inkscape-font-specification:'Zurich BdEx BT, Expanded';font-variant-ligatures:normal;font-variant-position:normal;font-variant-caps:normal;font-variant-numeric:normal;font-variant-alternates:normal;font-feature-settings:normal;text-indent:0;text-align:center;text-decoration:none;text-decoration-line:none;text-decoration-style:solid;text-decoration-color:#000000;letter-spacing:0.12px;word-spacing:0px;text-transform:none;writing-mode:lr-tb;direction:ltr;text-orientation:mixed;dominant-baseline:auto;baseline-shift:baseline;text-anchor:middle;white-space:normal;shape-padding:0;opacity:1;vector-effect:none;fill:#000000;fill-opacity:1;stroke:none;stroke-width:1px;stroke-linecap:butt;stroke-linejoin:miter;stroke-miterlimit:4;stroke-dasharray:none;stroke-dashoffset:0;stroke-opacity:1"
     id="text1468"
     transform="translate(871.45362,63.387014)"
     inkscape:export-xdpi="300"
     inkscape:export-ydpi="300">
    <path
       d="m -849.24266,-2.4785767 h 6.72656 l -3.19922,-7.1367187 z m -7.48828,7.1484375 8.66015,-17.2851558 h 4.75782 l 8.42578,17.2851558 h -4.3711 l -1.94531,-4.24218746 h -9.43359 l -1.96875,4.24218746 z"
       style="fill:#2577a1;fill-opacity:1"
       id="path1470"
       inkscape:connector-curvature="0" />
    <path
       d="m -836.09746,-12.615295 h 3.83203 v 8.5546871 q 0,1.8632812 0.1875,2.8242187 0.19922,0.96093754 0.63282,1.55859379 0.60937,0.83203121 1.6289,1.27734371 1.03125,0.4335938 2.35547,0.4335938 1.33594,0 2.29688,-0.4101563 0.97265,-0.421875 1.59375,-1.25390621 0.46875,-0.62109375 0.65625,-1.55859379 0.19921,-0.9492187 0.19921,-2.8710937 v -8.5546871 h 3.65625 v 10.0078121 q 0,2.26171874 -0.51562,3.53906249 -0.50391,1.27734371 -1.74609,2.29687501 -1.05469,0.8789062 -2.67188,1.3476562 -1.60547,0.4570313 -3.60937,0.4570313 -1.99219,0 -3.58594,-0.4570313 -1.58203,-0.46875 -2.6836,-1.3710937 -1.21875,-1.0078125 -1.72265,-2.28515626 -0.50391,-1.2890625 -0.50391,-3.52734374 z"
       id="path1472"
       inkscape:connector-curvature="0"
       style="fill:#222525;fill-opacity:1" />
    <path
       d="m -821.1321,4.6698608 8.01563,-9.046875 -7.17188,-8.2382808 h 4.60547 l 5.13282,6.0820308 5.05078,-6.0820308 h 4.51172 l -7.20704,8.4960933 7.51172,8.7890625 h -4.65234 l -5.58984,-6.5742187 -5.47266,6.5742187 z"
       id="path1474"
       inkscape:connector-curvature="0"
       style="fill:#000000;fill-opacity:0.99299753" />
  </g>
  <g
     transform="matrix(0.77857717,0,0,0.77857717,15.770383,185.91725)"
     id="g1497"
     inkscape:export-xdpi="300"
     inkscape:export-ydpi="300">
    <path
       style="color:#000000;clip-rule:nonzero;display:inline;overflow:visible;visibility:visible;opacity:1;isolation:auto;mix-blend-mode:normal;color-interpolation:sRGB;color-interpolation-filters:linearRGB;solid-color:#000000;solid-opacity:1;vector-effect:none;fill:#222525;fill-opacity:1;fill-rule:nonzero;stroke:none;stroke-width:49.82893753;stroke-linecap:round;stroke-linejoin:round;stroke-miterlimit:4;stroke-dasharray:none;stroke-dashoffset:0;stroke-opacity:1;marker:none;paint-order:normal;color-rendering:auto;image-rendering:auto;shape-rendering:auto;text-rendering:auto;enable-background:accumulate"
       d="M 46.914062 22.054688 C 40.760749 22.05475 34.340156 24.152639 31.96875 27.625 C 31.778886 27.903061 31.620695 28.184889 31.486328 28.46875 L 31.484375 28.46875 L 31.470703 28.5 C 31.378107 28.698841 31.296259 28.898986 31.230469 29.099609 L 30.126953 31.847656 C 29.357843 32.481815 28.699036 33.164774 28.195312 33.902344 C 23.845371 40.27288 31.215564 48.114892 46.914062 48.115234 C 62.612568 48.114892 69.982754 40.27288 65.632812 33.902344 C 65.129237 33.164977 64.470009 32.481675 63.701172 31.847656 L 62.591797 29.080078 C 62.529044 28.891258 62.451758 28.702864 62.365234 28.515625 L 62.345703 28.46875 L 62.341797 28.46875 C 62.20743 28.184889 62.049231 27.903061 61.859375 27.625 C 59.488 24.152616 53.067384 22.05475 46.914062 22.054688 z M 46.814453 22.951172 C 49.38707 22.951172 51.775599 23.320288 53.761719 23.951172 C 53.544737 23.932088 53.327134 23.912156 53.113281 23.908203 C 53.032438 23.906646 52.952267 23.90625 52.873047 23.90625 C 52.311768 23.910921 51.803125 23.973036 51.394531 24.085938 C 50.032887 24.462193 50.053102 25.31943 51.5 26.013672 C 52.210945 26.355016 53.172991 26.608647 54.169922 26.712891 C 55.17146 26.817679 56.11228 26.761723 56.777344 26.560547 C 57.280096 26.408316 57.569991 26.191873 57.664062 25.945312 C 58.694719 26.803535 59.291013 27.792265 59.291016 28.849609 C 59.291023 32.107106 53.705328 34.1875 46.814453 34.1875 C 39.923578 34.1875 34.33593 32.107106 34.335938 28.849609 C 34.335938 25.592097 39.923578 22.951172 46.814453 22.951172 z "
       transform="matrix(1.2843942,0,0,1.2843942,-20.255388,-238.79104)"
       id="path1489" />
    <path
       inkscape:connector-curvature="0"
       id="path1493"
       d="m 63.395751,-201.91571 c -0.230941,-9.6e-4 -0.450034,0.0111 -0.650977,0.0369 -0.591827,0.076 -1.000481,0.26255 -1.137093,0.52306 -0.138852,0.26471 0.01514,0.58352 0.434926,0.88978 0.426965,0.31184 1.093006,0.58417 1.850626,0.75048 0.76497,0.16792 1.549574,0.21529 2.174687,0.12792 0.622013,-0.087 1.025996,-0.2985 1.122872,-0.58276 0.09533,-0.27957 -0.116292,-0.60629 -0.577067,-0.90683 -0.761637,-0.49666 -2.069966,-0.83407 -3.217974,-0.8386 z m 4.082164,3.54488 c -0.750387,-1.1e-4 -1.347787,0.14443 -1.665838,0.40367 -0.322665,0.26296 -0.336551,0.62309 -0.02562,1.00917 0.31744,0.39416 0.945406,0.78211 1.748276,1.07171 0.815214,0.29404 1.735381,0.46064 2.547087,0.46052 1.689678,-2.2e-4 2.385208,-0.70223 1.586252,-1.53223 -0.371481,-0.38597 -1.023608,-0.74621 -1.810818,-1.00917 -0.775959,-0.25919 -1.629276,-0.40358 -2.379372,-0.40367 z m 2.578349,4.42329 c -1.368789,0.0287 -2.150963,0.55157 -1.92452,1.31334 0.141327,0.47498 0.662097,0.99239 1.458316,1.43842 0.813103,0.45548 1.836886,0.79533 2.839885,0.93526 2.107954,0.29424 3.425773,-0.35273 2.942234,-1.40147 -0.224115,-0.4861 -0.812826,-0.99368 -1.631736,-1.40999 -0.802653,-0.40804 -1.767736,-0.70006 -2.689214,-0.81871 -0.346724,-0.0445 -0.68243,-0.0635 -0.994965,-0.0568 z m 0.95232,5.73378 c -1.32728,-0.0189 -2.24931,0.40674 -2.410636,1.12573 -0.254228,1.12921 1.412993,2.65517 3.797895,3.37716 1.170495,0.35416 2.331283,0.45204 3.206592,0.26722 0.868906,-0.18348 1.368295,-0.62617 1.392936,-1.21954 0.05065,-1.19068 -1.782931,-2.63227 -4.03668,-3.25492 -0.67179,-0.18545 -1.34182,-0.28708 -1.950107,-0.29565 z m -2.945072,5.71958 c -1.045281,0.0113 -1.880551,0.30407 -2.331036,0.82723 -0.469275,0.54467 -0.492388,1.30442 -0.04832,2.11784 0.457878,0.83866 1.374014,1.66674 2.558453,2.29408 2.552573,1.35231 5.443225,1.35231 6.305174,0 0.400125,-0.62734 0.280718,-1.45542 -0.309857,-2.29408 -0.572818,-0.81342 -1.54186,-1.57317 -2.692066,-2.11784 -1.147412,-0.54347 -2.396503,-0.83828 -3.482348,-0.82723 z"
       style="color:#000000;clip-rule:nonzero;display:inline;overflow:visible;visibility:visible;opacity:1;isolation:auto;mix-blend-mode:normal;color-interpolation:sRGB;color-interpolation-filters:linearRGB;solid-color:#000000;solid-opacity:1;vector-effect:none;fill:#222525;fill-opacity:1;fill-rule:nonzero;stroke:none;stroke-width:72.52490997;stroke-linecap:round;stroke-linejoin:round;stroke-miterlimit:4;stroke-dasharray:none;stroke-dashoffset:0;stroke-opacity:1;marker:none;paint-order:normal;color-rendering:auto;image-rendering:auto;shape-rendering:auto;text-rendering:auto;enable-background:accumulate" />
    <path
       style="color:#000000;clip-rule:nonzero;display:inline;overflow:visible;visibility:visible;opacity:1;isolation:auto;mix-blend-mode:normal;color-interpolation:sRGB;color-interpolation-filters:linearRGB;solid-color:#000000;solid-opacity:1;vector-effect:none;fill:#2577a1;fill-opacity:1;fill-rule:nonzero;stroke:none;stroke-width:72.5249176;stroke-linecap:round;stroke-linejoin:round;stroke-miterlimit:4;stroke-dasharray:none;stroke-dashoffset:0;stroke-opacity:1;marker:none;paint-order:normal;color-rendering:auto;image-rendering:auto;shape-rendering:auto;text-rendering:auto;enable-background:accumulate"
       d="m 16.534214,-201.91668 c -1.132499,0.0185 -2.399181,0.35377 -3.142856,0.83883 -0.460759,0.30053 -0.670742,0.62788 -0.575462,0.90745 0.09689,0.28427 0.500116,0.49513 1.122142,0.58209 0.625119,0.0875 1.410677,0.0417 2.175656,-0.12616 0.75758,-0.1663 1.42337,-0.43845 1.850303,-0.7503 0.419262,-0.30626 0.572641,-0.62504 0.433801,-0.88974 -0.136618,-0.26052 -0.545795,-0.44851 -1.137621,-0.52455 -0.222402,-0.0287 -0.467752,-0.0419 -0.725963,-0.0376 z m -4.006038,3.54568 c -0.7501,9e-5 -1.601135,0.14362 -2.377071,0.40282 -0.7872204,0.26295 -1.4411908,0.62549 -1.812677,1.01146 -0.7989526,0.83001 -0.1027814,1.53139 1.5869216,1.5316 1.6900554,-2.1e-4 3.6230814,-0.70159 4.2915574,-1.5316 0.310905,-0.38597 0.300197,-0.7485 -0.0221,-1.01146 -0.317716,-0.25918 -0.916669,-0.40273 -1.6666,-0.40282 z m -2.6714421,4.42214 c -0.2860975,-0.001 -0.588038,0.0193 -0.9008016,0.0597 -0.921463,0.11871 -1.8864863,0.41088 -2.6891332,0.81892 -0.8189422,0.41632 -1.4092837,0.92157 -1.6334084,1.40765 -0.4835372,1.04875 0.8357364,1.69524 2.943673,1.40101 1.0029969,-0.13991 2.0287354,-0.47853 2.8418513,-0.934 0.79622,-0.44602 1.317221,-0.96366 1.458554,-1.43864 0.232567,-0.7803 -0.596903,-1.30752 -2.0185141,-1.31469 z m -0.573227,5.23221 v 0.002 c -0.6083027,0.009 -1.2759058,0.1089 -1.9476905,0.29437 -2.2537571,0.62265 -4.0876062,2.06283 -4.0370314,3.25352 0.02459,0.59337 0.5232446,1.03604 1.3921497,1.21952 0.8753078,0.18482 2.0343352,0.0885 3.204842,-0.26559 2.3848873,-0.722 4.0544443,-2.24826 3.8001993,-3.37747 -0.150705,-0.66978 -0.964718,-1.08686 -2.1601633,-1.12215 -0.08272,-0.003 -0.1666471,-0.005 -0.2523058,-0.005 z m 2.8307781,5.72134 c -1.059146,0.0113 -2.2610641,0.30422 -3.3663972,0.82776 -1.1502225,0.54466 -2.1207532,1.30028 -2.693564,2.11369 -0.5905908,0.83866 -0.7099849,1.66784 -0.3098627,2.29518 0.861936,1.35231 3.7530726,1.35231 6.3056399,0 1.184434,-0.62734 2.100673,-1.45652 2.558554,-2.29518 0.444113,-0.81341 0.42061,-1.56903 -0.04873,-2.11369 -0.467649,-0.54309 -1.347037,-0.83839 -2.445687,-0.82776 z"
       id="path1495"
       inkscape:connector-curvature="0"
       sodipodi:nodetypes="ccccccccccccccccccccccccccccccccscccccscccccc" />
  </g>
  <g
     transform="translate(961.45362,63.387014)"
     id="g1505"
     style="font-style:normal;font-variant:normal;font-weight:normal;font-stretch:expanded;font-size:24px;line-height:100%;font-family:'Zurich BdEx BT';-inkscape-font-specification:'Zurich BdEx BT, Expanded';font-variant-ligatures:normal;font-variant-position:normal;font-variant-caps:normal;font-variant-numeric:normal;font-variant-alternates:normal;font-feature-settings:normal;text-indent:0;text-align:center;text-decoration:none;text-decoration-line:none;text-decoration-style:solid;text-decoration-color:#000000;letter-spacing:0.12px;word-spacing:0px;text-transform:none;writing-mode:lr-tb;direction:ltr;text-orientation:mixed;dominant-baseline:auto;baseline-shift:baseline;text-anchor:middle;white-space:normal;shape-padding:0;opacity:1;vector-effect:none;fill:#000000;fill-opacity:1;stroke:none;stroke-width:1px;stroke-linecap:butt;stroke-linejoin:miter;stroke-miterlimit:4;stroke-dasharray:none;stroke-dashoffset:0;stroke-opacity:1"
     aria-label="AUX">
    <path
       inkscape:connector-curvature="0"
       id="path1499"
       style="fill:#b0b0b0;fill-opacity:1"
       d="m -849.24266,-2.4785767 h 6.72656 l -3.19922,-7.1367187 z m -7.48828,7.1484375 8.66015,-17.2851558 h 4.75782 l 8.42578,17.2851558 h -4.3711 l -1.94531,-4.24218746 h -9.43359 l -1.96875,4.24218746 z" />
    <path
       inkscape:connector-curvature="0"
       id="path1501"
       d="m -836.09746,-12.615295 h 3.83203 v 8.5546871 q 0,1.8632812 0.1875,2.8242187 0.19922,0.96093754 0.63282,1.55859379 0.60937,0.83203121 1.6289,1.27734371 1.03125,0.4335938 2.35547,0.4335938 1.33594,0 2.29688,-0.4101563 0.97265,-0.421875 1.59375,-1.25390621 0.46875,-0.62109375 0.65625,-1.55859379 0.19921,-0.9492187 0.19921,-2.8710937 v -8.5546871 h 3.65625 v 10.0078121 q 0,2.26171874 -0.51562,3.53906249 -0.50391,1.27734371 -1.74609,2.29687501 -1.05469,0.8789062 -2.67188,1.3476562 -1.60547,0.4570313 -3.60937,0.4570313 -1.99219,0 -3.58594,-0.4570313 -1.58203,-0.46875 -2.6836,-1.3710937 -1.21875,-1.0078125 -1.72265,-2.28515626 -0.50391,-1.2890625 -0.50391,-3.52734374 z"
       style="fill:#222525;fill-opacity:1" />
    <path
       inkscape:connector-curvature="0"
       id="path1503"
       d="m -821.1321,4.6698608 8.01563,-9.046875 -7.17188,-8.2382808 h 4.60547 l 5.13282,6.0820308 5.05078,-6.0820308 h 4.51172 l -7.20704,8.4960933 7.51172,8.7890625 h -4.65234 l -5.58984,-6.5742187 -5.47266,6.5742187 z"
       style="fill:#222525;fill-opacity:1" />
  </g>
  <g
     aria-label="AUX"
     style="font-style:normal;font-variant:normal;font-weight:normal;font-stretch:expanded;font-size:24px;line-height:100%;font-family:'Zurich BdEx BT';-inkscape-font-specification:'Zurich BdEx BT, Expanded';font-variant-ligatures:normal;font-variant-position:normal;font-variant-caps:normal;font-variant-numeric:normal;font-variant-alternates:normal;font-feature-settings:normal;text-indent:0;text-align:center;text-decoration:none;text-decoration-line:none;text-decoration-style:solid;text-decoration-color:#000000;letter-spacing:0.12px;word-spacing:0px;text-transform:none;writing-mode:lr-tb;direction:ltr;text-orientation:mixed;dominant-baseline:auto;baseline-shift:baseline;text-anchor:middle;white-space:normal;shape-padding:0;opacity:1;vector-effect:none;fill:#000000;fill-opacity:1;stroke:none;stroke-width:1px;stroke-linecap:butt;stroke-linejoin:miter;stroke-miterlimit:4;stroke-dasharray:none;stroke-dashoffset:0;stroke-opacity:1"
     id="g1535"
     transform="translate(1051.4536,63.387014)">
    <path
       d="m -849.24266,-2.4785767 h 6.72656 l -3.19922,-7.1367187 z m -7.48828,7.1484375 8.66015,-17.2851558 h 4.75782 l 8.42578,17.2851558 h -4.3711 l -1.94531,-4.24218746 h -9.43359 l -1.96875,4.24218746 z"
       style="fill:#222525;fill-opacity:1"
       id="path1529"
       inkscape:connector-curvature="0" />
    <path
       d="m -836.09746,-12.615295 h 3.83203 v 8.5546871 q 0,1.8632812 0.1875,2.8242187 0.19922,0.96093754 0.63282,1.55859379 0.60937,0.83203121 1.6289,1.27734371 1.03125,0.4335938 2.35547,0.4335938 1.33594,0 2.29688,-0.4101563 0.97265,-0.421875 1.59375,-1.25390621 0.46875,-0.62109375 0.65625,-1.55859379 0.19921,-0.9492187 0.19921,-2.8710937 v -8.5546871 h 3.65625 v 10.0078121 q 0,2.26171874 -0.51562,3.53906249 -0.50391,1.27734371 -1.74609,2.29687501 -1.05469,0.8789062 -2.67188,1.3476562 -1.60547,0.4570313 -3.60937,0.4570313 -1.99219,0 -3.58594,-0.4570313 -1.58203,-0.46875 -2.6836,-1.3710937 -1.21875,-1.0078125 -1.72265,-2.28515626 -0.50391,-1.2890625 -0.50391,-3.52734374 z"
       id="path1531"
       inkscape:connector-curvature="0"
       style="fill:#222525;fill-opacity:1" />
    <path
       d="m -821.1321,4.6698608 8.01563,-9.046875 -7.17188,-8.2382808 h 4.60547 l 5.13282,6.0820308 5.05078,-6.0820308 h 4.51172 l -7.20704,8.4960933 7.51172,8.7890625 h -4.65234 l -5.58984,-6.5742187 -5.47266,6.5742187 z"
       id="path1533"
       inkscape:connector-curvature="0"
       style="fill:#000000" />
  </g>
  <g
     transform="translate(1141.4536,63.387014)"
     id="g1565"
     style="font-style:normal;font-variant:normal;font-weight:normal;font-stretch:expanded;font-size:24px;line-height:100%;font-family:'Zurich BdEx BT';-inkscape-font-specification:'Zurich BdEx BT, Expanded';font-variant-ligatures:normal;font-variant-position:normal;font-variant-caps:normal;font-variant-numeric:normal;font-variant-alternates:normal;font-feature-settings:normal;text-indent:0;text-align:center;text-decoration:none;text-decoration-line:none;text-decoration-style:solid;text-decoration-color:#000000;letter-spacing:0.12px;word-spacing:0px;text-transform:none;writing-mode:lr-tb;direction:ltr;text-orientation:mixed;dominant-baseline:auto;baseline-shift:baseline;text-anchor:middle;white-space:normal;shape-padding:0;opacity:1;vector-effect:none;fill:#000000;fill-opacity:1;stroke:none;stroke-width:1px;stroke-linecap:butt;stroke-linejoin:miter;stroke-miterlimit:4;stroke-dasharray:none;stroke-dashoffset:0;stroke-opacity:1"
     aria-label="AUX">
    <path
       inkscape:connector-curvature="0"
       id="path1559"
       style="fill:#2577a1;fill-opacity:1"
       d="m -849.24266,-2.4785767 h 6.72656 l -3.19922,-7.1367187 z m -7.48828,7.1484375 8.66015,-17.2851558 h 4.75782 l 8.42578,17.2851558 h -4.3711 l -1.94531,-4.24218746 h -9.43359 l -1.96875,4.24218746 z" />
    <path
       inkscape:connector-curvature="0"
       id="path1561"
       d="m -836.09746,-12.615295 h 3.83203 v 8.5546871 q 0,1.8632812 0.1875,2.8242187 0.19922,0.96093754 0.63282,1.55859379 0.60937,0.83203121 1.6289,1.27734371 1.03125,0.4335938 2.35547,0.4335938 1.33594,0 2.29688,-0.4101563 0.97265,-0.421875 1.59375,-1.25390621 0.46875,-0.62109375 0.65625,-1.55859379 0.19921,-0.9492187 0.19921,-2.8710937 v -8.5546871 h 3.65625 v 10.0078121 q 0,2.26171874 -0.51562,3.53906249 -0.50391,1.27734371 -1.74609,2.29687501 -1.05469,0.8789062 -2.67188,1.3476562 -1.60547,0.4570313 -3.60937,0.4570313 -1.99219,0 -3.58594,-0.4570313 -1.58203,-0.46875 -2.6836,-1.3710937 -1.21875,-1.0078125 -1.72265,-2.28515626 -0.50391,-1.2890625 -0.50391,-3.52734374 z"
       style="fill:#ffffff;fill-opacity:1" />
    <path
       inkscape:connector-curvature="0"
       id="path1563"
       d="m -821.1321,4.6698608 8.01563,-9.046875 -7.17188,-8.2382808 h 4.60547 l 5.13282,6.0820308 5.05078,-6.0820308 h 4.51172 l -7.20704,8.4960933 7.51172,8.7890625 h -4.65234 l -5.58984,-6.5742187 -5.47266,6.5742187 z"
       style="fill:#ffffff;fill-opacity:1" />
  </g>
  <g
     aria-label="AUX"
     style="font-style:normal;font-variant:normal;font-weight:normal;font-stretch:expanded;font-size:24px;line-height:100%;font-family:'Zurich BdEx BT';-inkscape-font-specification:'Zurich BdEx BT, Expanded';font-variant-ligatures:normal;font-variant-position:normal;font-variant-caps:normal;font-variant-numeric:normal;font-variant-alternates:normal;font-feature-settings:normal;text-indent:0;text-align:center;text-decoration:none;text-decoration-line:none;text-decoration-style:solid;text-decoration-color:#000000;letter-spacing:0.12px;word-spacing:0px;text-transform:none;writing-mode:lr-tb;direction:ltr;text-orientation:mixed;dominant-baseline:auto;baseline-shift:baseline;text-anchor:middle;white-space:normal;shape-padding:0;opacity:1;vector-effect:none;fill:#ffffff;fill-opacity:1;stroke:none;stroke-width:1px;stroke-linecap:butt;stroke-linejoin:miter;stroke-miterlimit:4;stroke-dasharray:none;stroke-dashoffset:0;stroke-opacity:1"
     id="g1595"
     transform="translate(1231.4536,63.387014)">
    <path
       d="m -849.24266,-2.4785767 h 6.72656 l -3.19922,-7.1367187 z m -7.48828,7.1484375 8.66015,-17.2851558 h 4.75782 l 8.42578,17.2851558 h -4.3711 l -1.94531,-4.24218746 h -9.43359 l -1.96875,4.24218746 z"
       style="fill:#ffffff"
       id="path1589"
       inkscape:connector-curvature="0" />
    <path
       d="m -836.09746,-12.615295 h 3.83203 v 8.5546871 q 0,1.8632812 0.1875,2.8242187 0.19922,0.96093754 0.63282,1.55859379 0.60937,0.83203121 1.6289,1.27734371 1.03125,0.4335938 2.35547,0.4335938 1.33594,0 2.29688,-0.4101563 0.97265,-0.421875 1.59375,-1.25390621 0.46875,-0.62109375 0.65625,-1.55859379 0.19921,-0.9492187 0.19921,-2.8710937 v -8.5546871 h 3.65625 v 10.0078121 q 0,2.26171874 -0.51562,3.53906249 -0.50391,1.27734371 -1.74609,2.29687501 -1.05469,0.8789062 -2.67188,1.3476562 -1.60547,0.4570313 -3.60937,0.4570313 -1.99219,0 -3.58594,-0.4570313 -1.58203,-0.46875 -2.6836,-1.3710937 -1.21875,-1.0078125 -1.72265,-2.28515626 -0.50391,-1.2890625 -0.50391,-3.52734374 z"
       id="path1591"
       inkscape:connector-curvature="0"
       style="fill:#ffffff" />
    <path
       d="m -821.1321,4.6698608 8.01563,-9.046875 -7.17188,-8.2382808 h 4.60547 l 5.13282,6.0820308 5.05078,-6.0820308 h 4.51172 l -7.20704,8.4960933 7.51172,8.7890625 h -4.65234 l -5.58984,-6.5742187 -5.47266,6.5742187 z"
       id="path1593"
       inkscape:connector-curvature="0"
       style="fill:#ffffff" />
  </g>
  <g
     transform="matrix(0.77857717,0,0,0.77857717,-795.08366,172.07306)"
     id="g1818" />
  <g
     id="g1337"
     transform="matrix(0.77857717,0,0,0.77857717,105.77038,185.91725)">
    <path
       style="color:#000000;clip-rule:nonzero;display:inline;overflow:visible;visibility:visible;opacity:1;isolation:auto;mix-blend-mode:normal;color-interpolation:sRGB;color-interpolation-filters:linearRGB;solid-color:#000000;solid-opacity:1;vector-effect:none;fill:#222525;fill-opacity:1;fill-rule:nonzero;stroke:none;stroke-width:49.82893753;stroke-linecap:round;stroke-linejoin:round;stroke-miterlimit:4;stroke-dasharray:none;stroke-dashoffset:0;stroke-opacity:1;marker:none;paint-order:normal;color-rendering:auto;image-rendering:auto;shape-rendering:auto;text-rendering:auto;enable-background:accumulate"
       d="M 136.91406 22.054688 C 130.76075 22.05475 124.34016 24.152639 121.96875 27.625 C 121.77889 27.903061 121.62069 28.184889 121.48633 28.46875 L 121.48438 28.46875 L 121.4707 28.5 C 121.37811 28.698841 121.29626 28.898986 121.23047 29.099609 L 120.12695 31.847656 C 119.35784 32.481815 118.69904 33.164774 118.19531 33.902344 C 113.84537 40.27288 121.21556 48.114892 136.91406 48.115234 C 152.61257 48.114892 159.98275 40.27288 155.63281 33.902344 C 155.12924 33.164977 154.47001 32.481675 153.70117 31.847656 L 152.5918 29.080078 C 152.52904 28.891258 152.45176 28.702864 152.36523 28.515625 L 152.3457 28.46875 L 152.3418 28.46875 C 152.20743 28.184889 152.04923 27.903061 151.85938 27.625 C 149.488 24.152616 143.06738 22.05475 136.91406 22.054688 z M 136.81445 22.951172 C 139.38707 22.951172 141.7756 23.320288 143.76172 23.951172 C 143.54474 23.932088 143.32713 23.912156 143.11328 23.908203 C 143.03244 23.906646 142.95227 23.90625 142.87305 23.90625 C 142.31177 23.910921 141.80313 23.973036 141.39453 24.085938 C 140.03289 24.462193 140.0531 25.31943 141.5 26.013672 C 142.21095 26.355016 143.17299 26.608647 144.16992 26.712891 C 145.17146 26.817679 146.11228 26.761723 146.77734 26.560547 C 147.2801 26.408316 147.56999 26.191873 147.66406 25.945312 C 148.69472 26.803535 149.29101 27.792265 149.29102 28.849609 C 149.29102 32.107106 143.70533 34.1875 136.81445 34.1875 C 129.92358 34.1875 124.33593 32.107106 124.33594 28.849609 C 124.33594 25.592097 129.92358 22.951172 136.81445 22.951172 z "
       transform="matrix(1.2843942,0,0,1.2843942,-135.85086,-238.79104)"
       id="path1329" />
    <path
       style="color:#000000;clip-rule:nonzero;display:inline;overflow:visible;visibility:visible;opacity:1;isolation:auto;mix-blend-mode:normal;color-interpolation:sRGB;color-interpolation-filters:linearRGB;solid-color:#000000;solid-opacity:1;vector-effect:none;fill:#222525;fill-opacity:1;fill-rule:nonzero;stroke:none;stroke-width:72.52490997;stroke-linecap:round;stroke-linejoin:round;stroke-miterlimit:4;stroke-dasharray:none;stroke-dashoffset:0;stroke-opacity:1;marker:none;paint-order:normal;color-rendering:auto;image-rendering:auto;shape-rendering:auto;text-rendering:auto;enable-background:accumulate"
       d="m 63.395751,-201.91571 c -0.230941,-9.6e-4 -0.450034,0.0111 -0.650977,0.0369 -0.591827,0.076 -1.000481,0.26255 -1.137093,0.52306 -0.138852,0.26471 0.01514,0.58352 0.434926,0.88978 0.426965,0.31184 1.093006,0.58417 1.850626,0.75048 0.76497,0.16792 1.549574,0.21529 2.174687,0.12792 0.622013,-0.087 1.025996,-0.2985 1.122872,-0.58276 0.09533,-0.27957 -0.116292,-0.60629 -0.577067,-0.90683 -0.761637,-0.49666 -2.069966,-0.83407 -3.217974,-0.8386 z m 4.082164,3.54488 c -0.750387,-1.1e-4 -1.347787,0.14443 -1.665838,0.40367 -0.322665,0.26296 -0.336551,0.62309 -0.02562,1.00917 0.31744,0.39416 0.945406,0.78211 1.748276,1.07171 0.815214,0.29404 1.735381,0.46064 2.547087,0.46052 1.689678,-2.2e-4 2.385208,-0.70223 1.586252,-1.53223 -0.371481,-0.38597 -1.023608,-0.74621 -1.810818,-1.00917 -0.775959,-0.25919 -1.629276,-0.40358 -2.379372,-0.40367 z m 2.578349,4.42329 c -1.368789,0.0287 -2.150963,0.55157 -1.92452,1.31334 0.141327,0.47498 0.662097,0.99239 1.458316,1.43842 0.813103,0.45548 1.836886,0.79533 2.839885,0.93526 2.107954,0.29424 3.425773,-0.35273 2.942234,-1.40147 -0.224115,-0.4861 -0.812826,-0.99368 -1.631736,-1.40999 -0.802653,-0.40804 -1.767736,-0.70006 -2.689214,-0.81871 -0.346724,-0.0445 -0.68243,-0.0635 -0.994965,-0.0568 z m 0.95232,5.73378 c -1.32728,-0.0189 -2.24931,0.40674 -2.410636,1.12573 -0.254228,1.12921 1.412993,2.65517 3.797895,3.37716 1.170495,0.35416 2.331283,0.45204 3.206592,0.26722 0.868906,-0.18348 1.368295,-0.62617 1.392936,-1.21954 0.05065,-1.19068 -1.782931,-2.63227 -4.03668,-3.25492 -0.67179,-0.18545 -1.34182,-0.28708 -1.950107,-0.29565 z m -2.945072,5.71958 c -1.045281,0.0113 -1.880551,0.30407 -2.331036,0.82723 -0.469275,0.54467 -0.492388,1.30442 -0.04832,2.11784 0.457878,0.83866 1.374014,1.66674 2.558453,2.29408 2.552573,1.35231 5.443225,1.35231 6.305174,0 0.400125,-0.62734 0.280718,-1.45542 -0.309857,-2.29408 -0.572818,-0.81342 -1.54186,-1.57317 -2.692066,-2.11784 -1.147412,-0.54347 -2.396503,-0.83828 -3.482348,-0.82723 z"
       id="path1333"
       inkscape:connector-curvature="0" />
    <path
       sodipodi:nodetypes="ccccccccccccccccccccccccccccccccscccccscccccc"
       inkscape:connector-curvature="0"
       id="path1335"
       d="m 16.534214,-201.91668 c -1.132499,0.0185 -2.399181,0.35377 -3.142856,0.83883 -0.460759,0.30053 -0.670742,0.62788 -0.575462,0.90745 0.09689,0.28427 0.500116,0.49513 1.122142,0.58209 0.625119,0.0875 1.410677,0.0417 2.175656,-0.12616 0.75758,-0.1663 1.42337,-0.43845 1.850303,-0.7503 0.419262,-0.30626 0.572641,-0.62504 0.433801,-0.88974 -0.136618,-0.26052 -0.545795,-0.44851 -1.137621,-0.52455 -0.222402,-0.0287 -0.467752,-0.0419 -0.725963,-0.0376 z m -4.006038,3.54568 c -0.7501,9e-5 -1.601135,0.14362 -2.377071,0.40282 -0.7872204,0.26295 -1.4411908,0.62549 -1.812677,1.01146 -0.7989526,0.83001 -0.1027814,1.53139 1.5869216,1.5316 1.6900554,-2.1e-4 3.6230814,-0.70159 4.2915574,-1.5316 0.310905,-0.38597 0.300197,-0.7485 -0.0221,-1.01146 -0.317716,-0.25918 -0.916669,-0.40273 -1.6666,-0.40282 z m -2.6714421,4.42214 c -0.2860975,-0.001 -0.588038,0.0193 -0.9008016,0.0597 -0.921463,0.11871 -1.8864863,0.41088 -2.6891332,0.81892 -0.8189422,0.41632 -1.4092837,0.92157 -1.6334084,1.40765 -0.4835372,1.04875 0.8357364,1.69524 2.943673,1.40101 1.0029969,-0.13991 2.0287354,-0.47853 2.8418513,-0.934 0.79622,-0.44602 1.317221,-0.96366 1.458554,-1.43864 0.232567,-0.7803 -0.596903,-1.30752 -2.0185141,-1.31469 z m -0.573227,5.23221 v 0.002 c -0.6083027,0.009 -1.2759058,0.1089 -1.9476905,0.29437 -2.2537571,0.62265 -4.0876062,2.06283 -4.0370314,3.25352 0.02459,0.59337 0.5232446,1.03604 1.3921497,1.21952 0.8753078,0.18482 2.0343352,0.0885 3.204842,-0.26559 2.3848873,-0.722 4.0544443,-2.24826 3.8001993,-3.37747 -0.150705,-0.66978 -0.964718,-1.08686 -2.1601633,-1.12215 -0.08272,-0.003 -0.1666471,-0.005 -0.2523058,-0.005 z m 2.8307781,5.72134 c -1.059146,0.0113 -2.2610641,0.30422 -3.3663972,0.82776 -1.1502225,0.54466 -2.1207532,1.30028 -2.693564,2.11369 -0.5905908,0.83866 -0.7099849,1.66784 -0.3098627,2.29518 0.861936,1.35231 3.7530726,1.35231 6.3056399,0 1.184434,-0.62734 2.100673,-1.45652 2.558554,-2.29518 0.444113,-0.81341 0.42061,-1.56903 -0.04873,-2.11369 -0.467649,-0.54309 -1.347037,-0.83839 -2.445687,-0.82776 z"
       style="color:#000000;clip-rule:nonzero;display:inline;overflow:visible;visibility:visible;opacity:1;isolation:auto;mix-blend-mode:normal;color-interpolation:sRGB;color-interpolation-filters:linearRGB;solid-color:#000000;solid-opacity:1;vector-effect:none;fill:#b0b0b0;fill-opacity:1;fill-rule:nonzero;stroke:none;stroke-width:72.5249176;stroke-linecap:round;stroke-linejoin:round;stroke-miterlimit:4;stroke-dasharray:none;stroke-dashoffset:0;stroke-opacity:1;marker:none;paint-order:normal;color-rendering:auto;image-rendering:auto;shape-rendering:auto;text-rendering:auto;enable-background:accumulate" />
  </g>
  <g
     transform="matrix(0.77857717,0,0,0.77857717,195.77038,185.91725)"
     id="g1347">
    <path
       style="color:#000000;clip-rule:nonzero;display:inline;overflow:visible;visibility:visible;opacity:1;isolation:auto;mix-blend-mode:normal;color-interpolation:sRGB;color-interpolation-filters:linearRGB;solid-color:#000000;solid-opacity:1;vector-effect:none;fill:#222525;fill-opacity:1;fill-rule:nonzero;stroke:none;stroke-width:49.82893753;stroke-linecap:round;stroke-linejoin:round;stroke-miterlimit:4;stroke-dasharray:none;stroke-dashoffset:0;stroke-opacity:1;marker:none;paint-order:normal;color-rendering:auto;image-rendering:auto;shape-rendering:auto;text-rendering:auto;enable-background:accumulate"
       d="M 226.91406 22.054688 C 220.76075 22.05475 214.34016 24.152639 211.96875 27.625 C 211.77889 27.903061 211.62069 28.184889 211.48633 28.46875 L 211.48438 28.46875 L 211.4707 28.5 C 211.37811 28.698841 211.29626 28.898986 211.23047 29.099609 L 210.12695 31.847656 C 209.35784 32.481815 208.69904 33.164774 208.19531 33.902344 C 203.84537 40.27288 211.21556 48.114892 226.91406 48.115234 C 242.61257 48.114892 249.98275 40.27288 245.63281 33.902344 C 245.12924 33.164977 244.47001 32.481675 243.70117 31.847656 L 242.5918 29.080078 C 242.52904 28.891258 242.45176 28.702864 242.36523 28.515625 L 242.3457 28.46875 L 242.3418 28.46875 C 242.20743 28.184889 242.04923 27.903061 241.85938 27.625 C 239.488 24.152616 233.06738 22.05475 226.91406 22.054688 z M 226.81445 22.951172 C 229.38707 22.951172 231.7756 23.320288 233.76172 23.951172 C 233.54474 23.932088 233.32713 23.912156 233.11328 23.908203 C 233.03244 23.906646 232.95227 23.90625 232.87305 23.90625 C 232.31177 23.910921 231.80313 23.973036 231.39453 24.085938 C 230.03289 24.462193 230.0531 25.31943 231.5 26.013672 C 232.21095 26.355016 233.17299 26.608647 234.16992 26.712891 C 235.17146 26.817679 236.11228 26.761723 236.77734 26.560547 C 237.2801 26.408316 237.56999 26.191873 237.66406 25.945312 C 238.69472 26.803535 239.29101 27.792265 239.29102 28.849609 C 239.29102 32.107106 233.70533 34.1875 226.81445 34.1875 C 219.92358 34.1875 214.33593 32.107106 214.33594 28.849609 C 214.33594 25.592097 219.92358 22.951172 226.81445 22.951172 z "
       transform="matrix(1.2843942,0,0,1.2843942,-251.44634,-238.79104)"
       id="path1339" />
    <path
       inkscape:connector-curvature="0"
       id="path1343"
       d="m 63.395751,-201.91571 c -0.230941,-9.6e-4 -0.450034,0.0111 -0.650977,0.0369 -0.591827,0.076 -1.000481,0.26255 -1.137093,0.52306 -0.138852,0.26471 0.01514,0.58352 0.434926,0.88978 0.426965,0.31184 1.093006,0.58417 1.850626,0.75048 0.76497,0.16792 1.549574,0.21529 2.174687,0.12792 0.622013,-0.087 1.025996,-0.2985 1.122872,-0.58276 0.09533,-0.27957 -0.116292,-0.60629 -0.577067,-0.90683 -0.761637,-0.49666 -2.069966,-0.83407 -3.217974,-0.8386 z m 4.082164,3.54488 c -0.750387,-1.1e-4 -1.347787,0.14443 -1.665838,0.40367 -0.322665,0.26296 -0.336551,0.62309 -0.02562,1.00917 0.31744,0.39416 0.945406,0.78211 1.748276,1.07171 0.815214,0.29404 1.735381,0.46064 2.547087,0.46052 1.689678,-2.2e-4 2.385208,-0.70223 1.586252,-1.53223 -0.371481,-0.38597 -1.023608,-0.74621 -1.810818,-1.00917 -0.775959,-0.25919 -1.629276,-0.40358 -2.379372,-0.40367 z m 2.578349,4.42329 c -1.368789,0.0287 -2.150963,0.55157 -1.92452,1.31334 0.141327,0.47498 0.662097,0.99239 1.458316,1.43842 0.813103,0.45548 1.836886,0.79533 2.839885,0.93526 2.107954,0.29424 3.425773,-0.35273 2.942234,-1.40147 -0.224115,-0.4861 -0.812826,-0.99368 -1.631736,-1.40999 -0.802653,-0.40804 -1.767736,-0.70006 -2.689214,-0.81871 -0.346724,-0.0445 -0.68243,-0.0635 -0.994965,-0.0568 z m 0.95232,5.73378 c -1.32728,-0.0189 -2.24931,0.40674 -2.410636,1.12573 -0.254228,1.12921 1.412993,2.65517 3.797895,3.37716 1.170495,0.35416 2.331283,0.45204 3.206592,0.26722 0.868906,-0.18348 1.368295,-0.62617 1.392936,-1.21954 0.05065,-1.19068 -1.782931,-2.63227 -4.03668,-3.25492 -0.67179,-0.18545 -1.34182,-0.28708 -1.950107,-0.29565 z m -2.945072,5.71958 c -1.045281,0.0113 -1.880551,0.30407 -2.331036,0.82723 -0.469275,0.54467 -0.492388,1.30442 -0.04832,2.11784 0.457878,0.83866 1.374014,1.66674 2.558453,2.29408 2.552573,1.35231 5.443225,1.35231 6.305174,0 0.400125,-0.62734 0.280718,-1.45542 -0.309857,-2.29408 -0.572818,-0.81342 -1.54186,-1.57317 -2.692066,-2.11784 -1.147412,-0.54347 -2.396503,-0.83828 -3.482348,-0.82723 z"
       style="color:#000000;clip-rule:nonzero;display:inline;overflow:visible;visibility:visible;opacity:1;isolation:auto;mix-blend-mode:normal;color-interpolation:sRGB;color-interpolation-filters:linearRGB;solid-color:#000000;solid-opacity:1;vector-effect:none;fill:#222525;fill-opacity:1;fill-rule:nonzero;stroke:none;stroke-width:72.52490997;stroke-linecap:round;stroke-linejoin:round;stroke-miterlimit:4;stroke-dasharray:none;stroke-dashoffset:0;stroke-opacity:1;marker:none;paint-order:normal;color-rendering:auto;image-rendering:auto;shape-rendering:auto;text-rendering:auto;enable-background:accumulate" />
    <path
       style="color:#000000;clip-rule:nonzero;display:inline;overflow:visible;visibility:visible;opacity:1;isolation:auto;mix-blend-mode:normal;color-interpolation:sRGB;color-interpolation-filters:linearRGB;solid-color:#000000;solid-opacity:1;vector-effect:none;fill:#222525;fill-opacity:1;fill-rule:nonzero;stroke:none;stroke-width:72.5249176;stroke-linecap:round;stroke-linejoin:round;stroke-miterlimit:4;stroke-dasharray:none;stroke-dashoffset:0;stroke-opacity:1;marker:none;paint-order:normal;color-rendering:auto;image-rendering:auto;shape-rendering:auto;text-rendering:auto;enable-background:accumulate"
       d="m 16.534214,-201.91668 c -1.132499,0.0185 -2.399181,0.35377 -3.142856,0.83883 -0.460759,0.30053 -0.670742,0.62788 -0.575462,0.90745 0.09689,0.28427 0.500116,0.49513 1.122142,0.58209 0.625119,0.0875 1.410677,0.0417 2.175656,-0.12616 0.75758,-0.1663 1.42337,-0.43845 1.850303,-0.7503 0.419262,-0.30626 0.572641,-0.62504 0.433801,-0.88974 -0.136618,-0.26052 -0.545795,-0.44851 -1.137621,-0.52455 -0.222402,-0.0287 -0.467752,-0.0419 -0.725963,-0.0376 z m -4.006038,3.54568 c -0.7501,9e-5 -1.601135,0.14362 -2.377071,0.40282 -0.7872204,0.26295 -1.4411908,0.62549 -1.812677,1.01146 -0.7989526,0.83001 -0.1027814,1.53139 1.5869216,1.5316 1.6900554,-2.1e-4 3.6230814,-0.70159 4.2915574,-1.5316 0.310905,-0.38597 0.300197,-0.7485 -0.0221,-1.01146 -0.317716,-0.25918 -0.916669,-0.40273 -1.6666,-0.40282 z m -2.6714421,4.42214 c -0.2860975,-0.001 -0.588038,0.0193 -0.9008016,0.0597 -0.921463,0.11871 -1.8864863,0.41088 -2.6891332,0.81892 -0.8189422,0.41632 -1.4092837,0.92157 -1.6334084,1.40765 -0.4835372,1.04875 0.8357364,1.69524 2.943673,1.40101 1.0029969,-0.13991 2.0287354,-0.47853 2.8418513,-0.934 0.79622,-0.44602 1.317221,-0.96366 1.458554,-1.43864 0.232567,-0.7803 -0.596903,-1.30752 -2.0185141,-1.31469 z m -0.573227,5.23221 v 0.002 c -0.6083027,0.009 -1.2759058,0.1089 -1.9476905,0.29437 -2.2537571,0.62265 -4.0876062,2.06283 -4.0370314,3.25352 0.02459,0.59337 0.5232446,1.03604 1.3921497,1.21952 0.8753078,0.18482 2.0343352,0.0885 3.204842,-0.26559 2.3848873,-0.722 4.0544443,-2.24826 3.8001993,-3.37747 -0.150705,-0.66978 -0.964718,-1.08686 -2.1601633,-1.12215 -0.08272,-0.003 -0.1666471,-0.005 -0.2523058,-0.005 z m 2.8307781,5.72134 c -1.059146,0.0113 -2.2610641,0.30422 -3.3663972,0.82776 -1.1502225,0.54466 -2.1207532,1.30028 -2.693564,2.11369 -0.5905908,0.83866 -0.7099849,1.66784 -0.3098627,2.29518 0.861936,1.35231 3.7530726,1.35231 6.3056399,0 1.184434,-0.62734 2.100673,-1.45652 2.558554,-2.29518 0.444113,-0.81341 0.42061,-1.56903 -0.04873,-2.11369 -0.467649,-0.54309 -1.347037,-0.83839 -2.445687,-0.82776 z"
       id="path1345"
       inkscape:connector-curvature="0"
       sodipodi:nodetypes="ccccccccccccccccccccccccccccccccscccccscccccc" />
  </g>
  <g
     id="g1357"
     transform="matrix(0.77857717,0,0,0.77857717,285.77038,185.91725)">
    <path
       style="color:#000000;clip-rule:nonzero;display:inline;overflow:visible;visibility:visible;opacity:1;isolation:auto;mix-blend-mode:normal;color-interpolation:sRGB;color-interpolation-filters:linearRGB;solid-color:#000000;solid-opacity:1;vector-effect:none;fill:#ffffff;fill-opacity:1;fill-rule:nonzero;stroke:none;stroke-width:49.82893753;stroke-linecap:round;stroke-linejoin:round;stroke-miterlimit:4;stroke-dasharray:none;stroke-dashoffset:0;stroke-opacity:1;marker:none;paint-order:normal;color-rendering:auto;image-rendering:auto;shape-rendering:auto;text-rendering:auto;enable-background:accumulate"
       d="M 316.91406 22.054688 C 310.76075 22.05475 304.34016 24.152639 301.96875 27.625 C 301.77889 27.903061 301.62069 28.184889 301.48633 28.46875 L 301.48438 28.46875 L 301.4707 28.5 C 301.37811 28.698841 301.29626 28.898986 301.23047 29.099609 L 300.12695 31.847656 C 299.35784 32.481815 298.69904 33.164774 298.19531 33.902344 C 293.84537 40.27288 301.21556 48.114892 316.91406 48.115234 C 332.61257 48.114892 339.98275 40.27288 335.63281 33.902344 C 335.12924 33.164977 334.47001 32.481675 333.70117 31.847656 L 332.5918 29.080078 C 332.52904 28.891258 332.45176 28.702864 332.36523 28.515625 L 332.3457 28.46875 L 332.3418 28.46875 C 332.20743 28.184889 332.04923 27.903061 331.85938 27.625 C 329.488 24.152616 323.06738 22.05475 316.91406 22.054688 z M 316.81445 22.951172 C 319.38707 22.951172 321.7756 23.320288 323.76172 23.951172 C 323.54474 23.932088 323.32713 23.912156 323.11328 23.908203 C 323.03244 23.906646 322.95227 23.90625 322.87305 23.90625 C 322.31177 23.910921 321.80313 23.973036 321.39453 24.085938 C 320.03289 24.462193 320.0531 25.31943 321.5 26.013672 C 322.21095 26.355016 323.17299 26.608647 324.16992 26.712891 C 325.17146 26.817679 326.11228 26.761723 326.77734 26.560547 C 327.2801 26.408316 327.56999 26.191873 327.66406 25.945312 C 328.69472 26.803535 329.29101 27.792265 329.29102 28.849609 C 329.29102 32.107106 323.70533 34.1875 316.81445 34.1875 C 309.92358 34.1875 304.33593 32.107106 304.33594 28.849609 C 304.33594 25.592097 309.92358 22.951172 316.81445 22.951172 z "
       transform="matrix(1.2843942,0,0,1.2843942,-367.04182,-238.79104)"
       id="path1349" />
    <path
       style="color:#000000;clip-rule:nonzero;display:inline;overflow:visible;visibility:visible;opacity:1;isolation:auto;mix-blend-mode:normal;color-interpolation:sRGB;color-interpolation-filters:linearRGB;solid-color:#000000;solid-opacity:1;vector-effect:none;fill:#ffffff;fill-opacity:1;fill-rule:nonzero;stroke:none;stroke-width:72.52490997;stroke-linecap:round;stroke-linejoin:round;stroke-miterlimit:4;stroke-dasharray:none;stroke-dashoffset:0;stroke-opacity:1;marker:none;paint-order:normal;color-rendering:auto;image-rendering:auto;shape-rendering:auto;text-rendering:auto;enable-background:accumulate"
       d="m 63.395751,-201.91571 c -0.230941,-9.6e-4 -0.450034,0.0111 -0.650977,0.0369 -0.591827,0.076 -1.000481,0.26255 -1.137093,0.52306 -0.138852,0.26471 0.01514,0.58352 0.434926,0.88978 0.426965,0.31184 1.093006,0.58417 1.850626,0.75048 0.76497,0.16792 1.549574,0.21529 2.174687,0.12792 0.622013,-0.087 1.025996,-0.2985 1.122872,-0.58276 0.09533,-0.27957 -0.116292,-0.60629 -0.577067,-0.90683 -0.761637,-0.49666 -2.069966,-0.83407 -3.217974,-0.8386 z m 4.082164,3.54488 c -0.750387,-1.1e-4 -1.347787,0.14443 -1.665838,0.40367 -0.322665,0.26296 -0.336551,0.62309 -0.02562,1.00917 0.31744,0.39416 0.945406,0.78211 1.748276,1.07171 0.815214,0.29404 1.735381,0.46064 2.547087,0.46052 1.689678,-2.2e-4 2.385208,-0.70223 1.586252,-1.53223 -0.371481,-0.38597 -1.023608,-0.74621 -1.810818,-1.00917 -0.775959,-0.25919 -1.629276,-0.40358 -2.379372,-0.40367 z m 2.578349,4.42329 c -1.368789,0.0287 -2.150963,0.55157 -1.92452,1.31334 0.141327,0.47498 0.662097,0.99239 1.458316,1.43842 0.813103,0.45548 1.836886,0.79533 2.839885,0.93526 2.107954,0.29424 3.425773,-0.35273 2.942234,-1.40147 -0.224115,-0.4861 -0.812826,-0.99368 -1.631736,-1.40999 -0.802653,-0.40804 -1.767736,-0.70006 -2.689214,-0.81871 -0.346724,-0.0445 -0.68243,-0.0635 -0.994965,-0.0568 z m 0.95232,5.73378 c -1.32728,-0.0189 -2.24931,0.40674 -2.410636,1.12573 -0.254228,1.12921 1.412993,2.65517 3.797895,3.37716 1.170495,0.35416 2.331283,0.45204 3.206592,0.26722 0.868906,-0.18348 1.368295,-0.62617 1.392936,-1.21954 0.05065,-1.19068 -1.782931,-2.63227 -4.03668,-3.25492 -0.67179,-0.18545 -1.34182,-0.28708 -1.950107,-0.29565 z m -2.945072,5.71958 c -1.045281,0.0113 -1.880551,0.30407 -2.331036,0.82723 -0.469275,0.54467 -0.492388,1.30442 -0.04832,2.11784 0.457878,0.83866 1.374014,1.66674 2.558453,2.29408 2.552573,1.35231 5.443225,1.35231 6.305174,0 0.400125,-0.62734 0.280718,-1.45542 -0.309857,-2.29408 -0.572818,-0.81342 -1.54186,-1.57317 -2.692066,-2.11784 -1.147412,-0.54347 -2.396503,-0.83828 -3.482348,-0.82723 z"
       id="path1353"
       inkscape:connector-curvature="0" />
    <path
       sodipodi:nodetypes="ccccccccccccccccccccccccccccccccscccccscccccc"
       inkscape:connector-curvature="0"
       id="path1355"
       d="m 16.534214,-201.91668 c -1.132499,0.0185 -2.399181,0.35377 -3.142856,0.83883 -0.460759,0.30053 -0.670742,0.62788 -0.575462,0.90745 0.09689,0.28427 0.500116,0.49513 1.122142,0.58209 0.625119,0.0875 1.410677,0.0417 2.175656,-0.12616 0.75758,-0.1663 1.42337,-0.43845 1.850303,-0.7503 0.419262,-0.30626 0.572641,-0.62504 0.433801,-0.88974 -0.136618,-0.26052 -0.545795,-0.44851 -1.137621,-0.52455 -0.222402,-0.0287 -0.467752,-0.0419 -0.725963,-0.0376 z m -4.006038,3.54568 c -0.7501,9e-5 -1.601135,0.14362 -2.377071,0.40282 -0.7872204,0.26295 -1.4411908,0.62549 -1.812677,1.01146 -0.7989526,0.83001 -0.1027814,1.53139 1.5869216,1.5316 1.6900554,-2.1e-4 3.6230814,-0.70159 4.2915574,-1.5316 0.310905,-0.38597 0.300197,-0.7485 -0.0221,-1.01146 -0.317716,-0.25918 -0.916669,-0.40273 -1.6666,-0.40282 z m -2.6714421,4.42214 c -0.2860975,-0.001 -0.588038,0.0193 -0.9008016,0.0597 -0.921463,0.11871 -1.8864863,0.41088 -2.6891332,0.81892 -0.8189422,0.41632 -1.4092837,0.92157 -1.6334084,1.40765 -0.4835372,1.04875 0.8357364,1.69524 2.943673,1.40101 1.0029969,-0.13991 2.0287354,-0.47853 2.8418513,-0.934 0.79622,-0.44602 1.317221,-0.96366 1.458554,-1.43864 0.232567,-0.7803 -0.596903,-1.30752 -2.0185141,-1.31469 z m -0.573227,5.23221 v 0.002 c -0.6083027,0.009 -1.2759058,0.1089 -1.9476905,0.29437 -2.2537571,0.62265 -4.0876062,2.06283 -4.0370314,3.25352 0.02459,0.59337 0.5232446,1.03604 1.3921497,1.21952 0.8753078,0.18482 2.0343352,0.0885 3.204842,-0.26559 2.3848873,-0.722 4.0544443,-2.24826 3.8001993,-3.37747 -0.150705,-0.66978 -0.964718,-1.08686 -2.1601633,-1.12215 -0.08272,-0.003 -0.1666471,-0.005 -0.2523058,-0.005 z m 2.8307781,5.72134 c -1.059146,0.0113 -2.2610641,0.30422 -3.3663972,0.82776 -1.1502225,0.54466 -2.1207532,1.30028 -2.693564,2.11369 -0.5905908,0.83866 -0.7099849,1.66784 -0.3098627,2.29518 0.861936,1.35231 3.7530726,1.35231 6.3056399,0 1.184434,-0.62734 2.100673,-1.45652 2.558554,-2.29518 0.444113,-0.81341 0.42061,-1.56903 -0.04873,-2.11369 -0.467649,-0.54309 -1.347037,-0.83839 -2.445687,-0.82776 z"
       style="color:#000000;clip-rule:nonzero;display:inline;overflow:visible;visibility:visible;opacity:1;isolation:auto;mix-blend-mode:normal;color-interpolation:sRGB;color-interpolation-filters:linearRGB;solid-color:#000000;solid-opacity:1;vector-effect:none;fill:#2577a1;fill-opacity:1;fill-rule:nonzero;stroke:none;stroke-width:72.5249176;stroke-linecap:round;stroke-linejoin:round;stroke-miterlimit:4;stroke-dasharray:none;stroke-dashoffset:0;stroke-opacity:1;marker:none;paint-order:normal;color-rendering:auto;image-rendering:auto;shape-rendering:auto;text-rendering:auto;enable-background:accumulate" />
  </g>
  <g
     transform="matrix(0.77857717,0,0,0.77857717,375.77038,185.91725)"
     id="g1367"
     style="fill:#ffffff">
    <path
       style="color:#000000;clip-rule:nonzero;display:inline;overflow:visible;visibility:visible;opacity:1;isolation:auto;mix-blend-mode:normal;color-interpolation:sRGB;color-interpolation-filters:linearRGB;solid-color:#000000;solid-opacity:1;vector-effect:none;fill:#ffffff;fill-opacity:0.99658317;fill-rule:nonzero;stroke:none;stroke-width:49.82893753;stroke-linecap:round;stroke-linejoin:round;stroke-miterlimit:4;stroke-dasharray:none;stroke-dashoffset:0;stroke-opacity:1;marker:none;paint-order:normal;color-rendering:auto;image-rendering:auto;shape-rendering:auto;text-rendering:auto;enable-background:accumulate"
       d="M 406.91406 22.054688 C 400.76075 22.05475 394.34016 24.152639 391.96875 27.625 C 391.77889 27.903061 391.62069 28.184889 391.48633 28.46875 L 391.48438 28.46875 L 391.4707 28.5 C 391.37811 28.698841 391.29626 28.898986 391.23047 29.099609 L 390.12695 31.847656 C 389.35784 32.481815 388.69904 33.164774 388.19531 33.902344 C 383.84537 40.27288 391.21556 48.114892 406.91406 48.115234 C 422.61257 48.114892 429.98275 40.27288 425.63281 33.902344 C 425.12924 33.164977 424.47001 32.481675 423.70117 31.847656 L 422.5918 29.080078 C 422.52904 28.891258 422.45176 28.702864 422.36523 28.515625 L 422.3457 28.46875 L 422.3418 28.46875 C 422.20743 28.184889 422.04923 27.903061 421.85938 27.625 C 419.488 24.152616 413.06738 22.05475 406.91406 22.054688 z M 406.81445 22.951172 C 409.38707 22.951172 411.7756 23.320288 413.76172 23.951172 C 413.54474 23.932088 413.32713 23.912156 413.11328 23.908203 C 413.03244 23.906646 412.95227 23.90625 412.87305 23.90625 C 412.31177 23.910921 411.80313 23.973036 411.39453 24.085938 C 410.03289 24.462193 410.0531 25.31943 411.5 26.013672 C 412.21095 26.355016 413.17299 26.608647 414.16992 26.712891 C 415.17146 26.817679 416.11228 26.761723 416.77734 26.560547 C 417.2801 26.408316 417.56999 26.191873 417.66406 25.945312 C 418.69472 26.803535 419.29101 27.792265 419.29102 28.849609 C 419.29102 32.107106 413.70533 34.1875 406.81445 34.1875 C 399.92358 34.1875 394.33593 32.107106 394.33594 28.849609 C 394.33594 25.592097 399.92358 22.951172 406.81445 22.951172 z "
       transform="matrix(1.2843942,0,0,1.2843942,-482.6373,-238.79104)"
       id="path1359" />
    <path
       inkscape:connector-curvature="0"
       id="path1363"
       d="m 63.395751,-201.91571 c -0.230941,-9.6e-4 -0.450034,0.0111 -0.650977,0.0369 -0.591827,0.076 -1.000481,0.26255 -1.137093,0.52306 -0.138852,0.26471 0.01514,0.58352 0.434926,0.88978 0.426965,0.31184 1.093006,0.58417 1.850626,0.75048 0.76497,0.16792 1.549574,0.21529 2.174687,0.12792 0.622013,-0.087 1.025996,-0.2985 1.122872,-0.58276 0.09533,-0.27957 -0.116292,-0.60629 -0.577067,-0.90683 -0.761637,-0.49666 -2.069966,-0.83407 -3.217974,-0.8386 z m 4.082164,3.54488 c -0.750387,-1.1e-4 -1.347787,0.14443 -1.665838,0.40367 -0.322665,0.26296 -0.336551,0.62309 -0.02562,1.00917 0.31744,0.39416 0.945406,0.78211 1.748276,1.07171 0.815214,0.29404 1.735381,0.46064 2.547087,0.46052 1.689678,-2.2e-4 2.385208,-0.70223 1.586252,-1.53223 -0.371481,-0.38597 -1.023608,-0.74621 -1.810818,-1.00917 -0.775959,-0.25919 -1.629276,-0.40358 -2.379372,-0.40367 z m 2.578349,4.42329 c -1.368789,0.0287 -2.150963,0.55157 -1.92452,1.31334 0.141327,0.47498 0.662097,0.99239 1.458316,1.43842 0.813103,0.45548 1.836886,0.79533 2.839885,0.93526 2.107954,0.29424 3.425773,-0.35273 2.942234,-1.40147 -0.224115,-0.4861 -0.812826,-0.99368 -1.631736,-1.40999 -0.802653,-0.40804 -1.767736,-0.70006 -2.689214,-0.81871 -0.346724,-0.0445 -0.68243,-0.0635 -0.994965,-0.0568 z m 0.95232,5.73378 c -1.32728,-0.0189 -2.24931,0.40674 -2.410636,1.12573 -0.254228,1.12921 1.412993,2.65517 3.797895,3.37716 1.170495,0.35416 2.331283,0.45204 3.206592,0.26722 0.868906,-0.18348 1.368295,-0.62617 1.392936,-1.21954 0.05065,-1.19068 -1.782931,-2.63227 -4.03668,-3.25492 -0.67179,-0.18545 -1.34182,-0.28708 -1.950107,-0.29565 z m -2.945072,5.71958 c -1.045281,0.0113 -1.880551,0.30407 -2.331036,0.82723 -0.469275,0.54467 -0.492388,1.30442 -0.04832,2.11784 0.457878,0.83866 1.374014,1.66674 2.558453,2.29408 2.552573,1.35231 5.443225,1.35231 6.305174,0 0.400125,-0.62734 0.280718,-1.45542 -0.309857,-2.29408 -0.572818,-0.81342 -1.54186,-1.57317 -2.692066,-2.11784 -1.147412,-0.54347 -2.396503,-0.83828 -3.482348,-0.82723 z"
       style="color:#000000;clip-rule:nonzero;display:inline;overflow:visible;visibility:visible;opacity:1;isolation:auto;mix-blend-mode:normal;color-interpolation:sRGB;color-interpolation-filters:linearRGB;solid-color:#000000;solid-opacity:1;vector-effect:none;fill:#ffffff;fill-opacity:0.98409095;fill-rule:nonzero;stroke:none;stroke-width:72.52490997;stroke-linecap:round;stroke-linejoin:round;stroke-miterlimit:4;stroke-dasharray:none;stroke-dashoffset:0;stroke-opacity:1;marker:none;paint-order:normal;color-rendering:auto;image-rendering:auto;shape-rendering:auto;text-rendering:auto;enable-background:accumulate" />
    <path
       style="color:#000000;clip-rule:nonzero;display:inline;overflow:visible;visibility:visible;opacity:1;isolation:auto;mix-blend-mode:normal;color-interpolation:sRGB;color-interpolation-filters:linearRGB;solid-color:#000000;solid-opacity:1;vector-effect:none;fill:#ffffff;fill-opacity:0.98409095;fill-rule:nonzero;stroke:none;stroke-width:72.5249176;stroke-linecap:round;stroke-linejoin:round;stroke-miterlimit:4;stroke-dasharray:none;stroke-dashoffset:0;stroke-opacity:1;marker:none;paint-order:normal;color-rendering:auto;image-rendering:auto;shape-rendering:auto;text-rendering:auto;enable-background:accumulate"
       d="m 16.534214,-201.91668 c -1.132499,0.0185 -2.399181,0.35377 -3.142856,0.83883 -0.460759,0.30053 -0.670742,0.62788 -0.575462,0.90745 0.09689,0.28427 0.500116,0.49513 1.122142,0.58209 0.625119,0.0875 1.410677,0.0417 2.175656,-0.12616 0.75758,-0.1663 1.42337,-0.43845 1.850303,-0.7503 0.419262,-0.30626 0.572641,-0.62504 0.433801,-0.88974 -0.136618,-0.26052 -0.545795,-0.44851 -1.137621,-0.52455 -0.222402,-0.0287 -0.467752,-0.0419 -0.725963,-0.0376 z m -4.006038,3.54568 c -0.7501,9e-5 -1.601135,0.14362 -2.377071,0.40282 -0.7872204,0.26295 -1.4411908,0.62549 -1.812677,1.01146 -0.7989526,0.83001 -0.1027814,1.53139 1.5869216,1.5316 1.6900554,-2.1e-4 3.6230814,-0.70159 4.2915574,-1.5316 0.310905,-0.38597 0.300197,-0.7485 -0.0221,-1.01146 -0.317716,-0.25918 -0.916669,-0.40273 -1.6666,-0.40282 z m -2.6714421,4.42214 c -0.2860975,-0.001 -0.588038,0.0193 -0.9008016,0.0597 -0.921463,0.11871 -1.8864863,0.41088 -2.6891332,0.81892 -0.8189422,0.41632 -1.4092837,0.92157 -1.6334084,1.40765 -0.4835372,1.04875 0.8357364,1.69524 2.943673,1.40101 1.0029969,-0.13991 2.0287354,-0.47853 2.8418513,-0.934 0.79622,-0.44602 1.317221,-0.96366 1.458554,-1.43864 0.232567,-0.7803 -0.596903,-1.30752 -2.0185141,-1.31469 z m -0.573227,5.23221 v 0.002 c -0.6083027,0.009 -1.2759058,0.1089 -1.9476905,0.29437 -2.2537571,0.62265 -4.0876062,2.06283 -4.0370314,3.25352 0.02459,0.59337 0.5232446,1.03604 1.3921497,1.21952 0.8753078,0.18482 2.0343352,0.0885 3.204842,-0.26559 2.3848873,-0.722 4.0544443,-2.24826 3.8001993,-3.37747 -0.150705,-0.66978 -0.964718,-1.08686 -2.1601633,-1.12215 -0.08272,-0.003 -0.1666471,-0.005 -0.2523058,-0.005 z m 2.8307781,5.72134 c -1.059146,0.0113 -2.2610641,0.30422 -3.3663972,0.82776 -1.1502225,0.54466 -2.1207532,1.30028 -2.693564,2.11369 -0.5905908,0.83866 -0.7099849,1.66784 -0.3098627,2.29518 0.861936,1.35231 3.7530726,1.35231 6.3056399,0 1.184434,-0.62734 2.100673,-1.45652 2.558554,-2.29518 0.444113,-0.81341 0.42061,-1.56903 -0.04873,-2.11369 -0.467649,-0.54309 -1.347037,-0.83839 -2.445687,-0.82776 z"
       id="path1365"
       inkscape:connector-curvature="0"
       sodipodi:nodetypes="ccccccccccccccccccccccccccccccccscccccscccccc" />
  </g>
  <text
     xml:space="preserve"
     style="font-style:normal;font-variant:normal;font-weight:normal;font-stretch:expanded;font-size:8.27631378px;line-height:100%;font-family:'Zurich Ex BT';-inkscape-font-specification:'Zurich Ex BT, Expanded';font-variant-ligatures:normal;font-variant-position:normal;font-variant-caps:normal;font-variant-numeric:normal;font-variant-alternates:normal;font-feature-settings:normal;text-indent:0;text-align:center;text-decoration:none;text-decoration-line:none;text-decoration-style:solid;text-decoration-color:#000000;letter-spacing:-0.63652426px;word-spacing:0px;text-transform:none;writing-mode:lr-tb;direction:ltr;text-orientation:mixed;dominant-baseline:auto;baseline-shift:baseline;text-anchor:middle;white-space:normal;shape-padding:0;opacity:1;vector-effect:none;fill:#222525;fill-opacity:1;stroke:none;stroke-width:1.80449748px;stroke-linecap:butt;stroke-linejoin:miter;stroke-miterlimit:4;stroke-dasharray:none;stroke-dashoffset:0;stroke-opacity:1;"
     x="42.399609"
     y="76.240242"
     id="text1373"
     inkscape:export-xdpi="300"
     inkscape:export-ydpi="300"><tspan
       dx="0 0 0 -0.33094898 0.082737245 0 -2.8284276 1.9960018e-09 -0.07272394 -0.07272394 -0.07272394 -1.9960018e-09 0"
       sodipodi:role="line"
       id="tspan1371"
       x="42.081345"
       y="76.240242"
       style="font-style:normal;font-variant:normal;font-weight:normal;font-stretch:expanded;font-size:8.27631378px;font-family:'Zurich Ex BT';-inkscape-font-specification:'Zurich Ex BT, Expanded';font-variant-ligatures:normal;font-variant-caps:normal;font-variant-numeric:normal;font-feature-settings:normal;text-align:center;letter-spacing:-0.63652426px;writing-mode:lr-tb;text-anchor:middle;fill:#222525;fill-opacity:1;stroke-width:1.80449748px;"><tspan
   style="fill:#222525;fill-opacity:1;"
   id="tspan1387">Audio</tspan> Widgets</tspan></text>
  <text
     id="text1395"
     y="76.240242"
     x="132.39961"
     style="font-style:normal;font-variant:normal;font-weight:normal;font-stretch:expanded;font-size:8.27631378px;line-height:100%;font-family:'Zurich Ex BT';-inkscape-font-specification:'Zurich Ex BT, Expanded';font-variant-ligatures:normal;font-variant-position:normal;font-variant-caps:normal;font-variant-numeric:normal;font-variant-alternates:normal;font-feature-settings:normal;text-indent:0;text-align:center;text-decoration:none;text-decoration-line:none;text-decoration-style:solid;text-decoration-color:#000000;letter-spacing:-0.63652426px;word-spacing:0px;text-transform:none;writing-mode:lr-tb;direction:ltr;text-orientation:mixed;dominant-baseline:auto;baseline-shift:baseline;text-anchor:middle;white-space:normal;shape-padding:0;opacity:1;vector-effect:none;fill:#222525;fill-opacity:1;stroke:none;stroke-width:1.80449748px;stroke-linecap:butt;stroke-linejoin:miter;stroke-miterlimit:4;stroke-dasharray:none;stroke-dashoffset:0;stroke-opacity:1;"
     xml:space="preserve"><tspan
       style="font-style:normal;font-variant:normal;font-weight:normal;font-stretch:expanded;font-size:8.27631378px;font-family:'Zurich Ex BT';-inkscape-font-specification:'Zurich Ex BT, Expanded';font-variant-ligatures:normal;font-variant-caps:normal;font-variant-numeric:normal;font-feature-settings:normal;text-align:center;letter-spacing:-0.63652426px;writing-mode:lr-tb;text-anchor:middle;fill:#222525;fill-opacity:1;stroke-width:1.80449748px;"
       y="76.240242"
       x="132.08136"
       id="tspan1393"
       sodipodi:role="line"
       dx="0 0 0 -0.33094898 0.082737245 0 -2.8284276 1.9960018e-09 -0.07272394 -0.07272394 -0.07272394 -1.9960018e-09 0"><tspan
   id="tspan1391"
   style="fill:#222525;fill-opacity:1;">Audio</tspan> Widgets</tspan></text>
  <text
     xml:space="preserve"
     style="font-style:normal;font-variant:normal;font-weight:normal;font-stretch:expanded;font-size:8.27631378px;line-height:100%;font-family:'Zurich Ex BT';-inkscape-font-specification:'Zurich Ex BT, Expanded';font-variant-ligatures:normal;font-variant-position:normal;font-variant-caps:normal;font-variant-numeric:normal;font-variant-alternates:normal;font-feature-settings:normal;text-indent:0;text-align:center;text-decoration:none;text-decoration-line:none;text-decoration-style:solid;text-decoration-color:#000000;letter-spacing:-0.63652426px;word-spacing:0px;text-transform:none;writing-mode:lr-tb;direction:ltr;text-orientation:mixed;dominant-baseline:auto;baseline-shift:baseline;text-anchor:middle;white-space:normal;shape-padding:0;opacity:1;vector-effect:none;fill:#222525;fill-opacity:1;stroke:none;stroke-width:1.80449748px;stroke-linecap:butt;stroke-linejoin:miter;stroke-miterlimit:4;stroke-dasharray:none;stroke-dashoffset:0;stroke-opacity:1;"
     x="222.39961"
     y="76.240242"
     id="text1401"><tspan
       dx="0 0 0 -0.33094898 0.082737245 0 -2.8284276 1.9960018e-09 -0.07272394 -0.07272394 -0.07272394 -1.9960018e-09 0"
       sodipodi:role="line"
       id="tspan1399"
       x="222.08134"
       y="76.240242"
       style="font-style:normal;font-variant:normal;font-weight:normal;font-stretch:expanded;font-size:8.27631378px;font-family:'Zurich Ex BT';-inkscape-font-specification:'Zurich Ex BT, Expanded';font-variant-ligatures:normal;font-variant-caps:normal;font-variant-numeric:normal;font-feature-settings:normal;text-align:center;letter-spacing:-0.63652426px;writing-mode:lr-tb;text-anchor:middle;fill:#222525;fill-opacity:1;stroke-width:1.80449748px;"><tspan
   style="fill:#222525;fill-opacity:1;"
   id="tspan1397">Audio</tspan> Widgets</tspan></text>
  <text
     id="text1407"
     y="76.240242"
     x="312.3996"
     style="font-style:normal;font-variant:normal;font-weight:normal;font-stretch:expanded;font-size:8.27631378px;line-height:100%;font-family:'Zurich Ex BT';-inkscape-font-specification:'Zurich Ex BT, Expanded';font-variant-ligatures:normal;font-variant-position:normal;font-variant-caps:normal;font-variant-numeric:normal;font-variant-alternates:normal;font-feature-settings:normal;text-indent:0;text-align:center;text-decoration:none;text-decoration-line:none;text-decoration-style:solid;text-decoration-color:#000000;letter-spacing:-0.63652426px;word-spacing:0px;text-transform:none;writing-mode:lr-tb;direction:ltr;text-orientation:mixed;dominant-baseline:auto;baseline-shift:baseline;text-anchor:middle;white-space:normal;shape-padding:0;opacity:1;vector-effect:none;fill:#ffffff;fill-opacity:1;stroke:none;stroke-width:1.80449748px;stroke-linecap:butt;stroke-linejoin:miter;stroke-miterlimit:4;stroke-dasharray:none;stroke-dashoffset:0;stroke-opacity:1;"
     xml:space="preserve"><tspan
       style="font-style:normal;font-variant:normal;font-weight:normal;font-stretch:expanded;font-size:8.27631378px;font-family:'Zurich Ex BT';-inkscape-font-specification:'Zurich Ex BT, Expanded';font-variant-ligatures:normal;font-variant-caps:normal;font-variant-numeric:normal;font-feature-settings:normal;text-align:center;letter-spacing:-0.63652426px;writing-mode:lr-tb;text-anchor:middle;fill:#ffffff;fill-opacity:1;stroke-width:1.80449748px;"
       y="76.240242"
       x="312.08133"
       id="tspan1405"
       sodipodi:role="line"
       dx="0 0 0 -0.33094898 0.082737245 0 -2.8284276 1.9960018e-09 -0.07272394 -0.07272394 -0.07272394 -1.9960018e-09 0"><tspan
   id="tspan1403"
   style="fill:#ffffff;fill-opacity:1;">Audio</tspan> Widgets</tspan></text>
  <text
     xml:space="preserve"
     style="font-style:normal;font-variant:normal;font-weight:normal;font-stretch:expanded;font-size:8.27631378px;line-height:100%;font-family:'Zurich Ex BT';-inkscape-font-specification:'Zurich Ex BT, Expanded';font-variant-ligatures:normal;font-variant-position:normal;font-variant-caps:normal;font-variant-numeric:normal;font-variant-alternates:normal;font-feature-settings:normal;text-indent:0;text-align:center;text-decoration:none;text-decoration-line:none;text-decoration-style:solid;text-decoration-color:#000000;letter-spacing:-0.63652426px;word-spacing:0px;text-transform:none;writing-mode:lr-tb;direction:ltr;text-orientation:mixed;dominant-baseline:auto;baseline-shift:baseline;text-anchor:middle;white-space:normal;shape-padding:0;opacity:1;vector-effect:none;fill:#ffffff;fill-opacity:1;stroke:none;stroke-width:1.80449748px;stroke-linecap:butt;stroke-linejoin:miter;stroke-miterlimit:4;stroke-dasharray:none;stroke-dashoffset:0;stroke-opacity:1;"
     x="402.3996"
     y="76.240242"
     id="text1413"><tspan
       dx="0 0 0 -0.33094898 0.082737245 0 -2.8284276 1.9960018e-09 -0.07272394 -0.07272394 -0.07272394 -1.9960018e-09 0"
       sodipodi:role="line"
       id="tspan1411"
       x="402.08133"
       y="76.240242"
       style="font-style:normal;font-variant:normal;font-weight:normal;font-stretch:expanded;font-size:8.27631378px;font-family:'Zurich Ex BT';-inkscape-font-specification:'Zurich Ex BT, Expanded';font-variant-ligatures:normal;font-variant-caps:normal;font-variant-numeric:normal;font-feature-settings:normal;text-align:center;letter-spacing:-0.63652426px;writing-mode:lr-tb;text-anchor:middle;fill:#ffffff;fill-opacity:1;stroke-width:1.80449748px;"><tspan
   style="fill:#ffffff;fill-opacity:1;"
   id="tspan1409">Audio</tspan> Widgets</tspan></text>
  <rect
     style="color:#000000;clip-rule:nonzero;display:inline;overflow:visible;visibility:visible;opacity:1;isolation:auto;mix-blend-mode:normal;color-interpolation:sRGB;color-interpolation-filters:linearRGB;solid-color:#000000;solid-opacity:1;vector-effect:none;fill:#2577a1;fill-opacity:1;fill-rule:nonzero;stroke:none;stroke-width:64;stroke-linecap:round;stroke-linejoin:round;stroke-miterlimit:4;stroke-dasharray:none;stroke-dashoffset:0;stroke-opacity:1;marker:none;paint-order:normal;color-rendering:auto;image-rendering:auto;shape-rendering:auto;text-rendering:auto;enable-background:accumulate"
     id="rect872"
     width="198.52023"
     height="85.736694"
     x="27.223612"
     y="-93.338097" />
  <rect
     style="color:#000000;clip-rule:nonzero;display:inline;overflow:visible;visibility:visible;opacity:1;isolation:auto;mix-blend-mode:normal;color-interpolation:sRGB;color-interpolation-filters:linearRGB;solid-color:#000000;solid-opacity:1;vector-effect:none;fill:#222525;fill-opacity:1;fill-rule:nonzero;stroke:none;stroke-width:64;stroke-linecap:round;stroke-linejoin:round;stroke-miterlimit:4;stroke-dasharray:none;stroke-dashoffset:0;stroke-opacity:1;marker:none;paint-order:normal;color-rendering:auto;image-rendering:auto;shape-rendering:auto;text-rendering:auto;enable-background:accumulate"
     id="rect875"
     width="67.175148"
     height="88.741905"
     x="124.27402"
     y="-125.51146" />
  <rect
     style="color:#000000;clip-rule:nonzero;display:inline;overflow:visible;visibility:visible;opacity:1;isolation:auto;mix-blend-mode:normal;color-interpolation:sRGB;color-interpolation-filters:linearRGB;solid-color:#000000;solid-opacity:1;vector-effect:none;fill:#ffffff;fill-opacity:1;fill-rule:nonzero;stroke:none;stroke-width:64;stroke-linecap:round;stroke-linejoin:round;stroke-miterlimit:4;stroke-dasharray:none;stroke-dashoffset:0;stroke-opacity:1;marker:none;paint-order:normal;color-rendering:auto;image-rendering:auto;shape-rendering:auto;text-rendering:auto;enable-background:accumulate"
     id="rect903"
     width="59.750523"
     height="63.462833"
     x="51.972347"
     y="-80.786957" />
  <rect
     y="-80.786957"
     x="90.86322"
     height="63.462833"
     width="20.85965"
     id="rect905"
     style="color:#000000;clip-rule:nonzero;display:inline;overflow:visible;visibility:visible;opacity:1;isolation:auto;mix-blend-mode:normal;color-interpolation:sRGB;color-interpolation-filters:linearRGB;solid-color:#000000;solid-opacity:1;vector-effect:none;fill:#e0e0e0;fill-opacity:1;fill-rule:nonzero;stroke:none;stroke-width:64;stroke-linecap:round;stroke-linejoin:round;stroke-miterlimit:4;stroke-dasharray:none;stroke-dashoffset:0;stroke-opacity:1;marker:none;paint-order:normal;color-rendering:auto;image-rendering:auto;shape-rendering:auto;text-rendering:auto;enable-background:accumulate" />
  <rect
     y="-64.169945"
     x="124.27402"
     height="27.400393"
     width="67.175148"
     id="rect907"
     style="color:#000000;clip-rule:nonzero;display:inline;overflow:visible;visibility:visible;opacity:1;isolation:auto;mix-blend-mode:normal;color-interpolation:sRGB;color-interpolation-filters:linearRGB;solid-color:#000000;solid-opacity:1;vector-effect:none;fill:#000000;fill-opacity:1;fill-rule:nonzero;stroke:none;stroke-width:64;stroke-linecap:round;stroke-linejoin:round;stroke-miterlimit:4;stroke-dasharray:none;stroke-dashoffset:0;stroke-opacity:1;marker:none;paint-order:normal;color-rendering:auto;image-rendering:auto;shape-rendering:auto;text-rendering:auto;enable-background:accumulate" />
  <rect
     style="color:#000000;clip-rule:nonzero;display:inline;overflow:visible;visibility:visible;opacity:1;isolation:auto;mix-blend-mode:normal;color-interpolation:sRGB;color-interpolation-filters:linearRGB;solid-color:#000000;solid-opacity:1;vector-effect:none;fill:#ee6b11;fill-opacity:1;fill-rule:nonzero;stroke:none;stroke-width:64;stroke-linecap:round;stroke-linejoin:round;stroke-miterlimit:4;stroke-dasharray:none;stroke-dashoffset:0;stroke-opacity:1;marker:none;paint-order:normal;color-rendering:auto;image-rendering:auto;shape-rendering:auto;text-rendering:auto;enable-background:accumulate"
     id="rect877"
     width="15.733126"
     height="25.809399"
     x="186.85297"
     y="-53.502682" />
</svg>
