<?xml version="1.0" encoding="UTF-8" standalone="no"?>
<!-- Created with Inkscape (http://www.inkscape.org/) -->

<svg
   width="96"
   height="80"
   viewBox="0 0 96 80"
   id="svg2"
   version="1.1"
   inkscape:version="1.1.1 (3bf5ae0d25, 2021-09-20)"
   sodipodi:docname="aux_logo.svg"
   inkscape:export-filename="/home/markus/DeusO/Development/AUX/AUXLogo.png"
   inkscape:export-xdpi="300"
   inkscape:export-ydpi="300"
   xmlns:inkscape="http://www.inkscape.org/namespaces/inkscape"
   xmlns:sodipodi="http://sodipodi.sourceforge.net/DTD/sodipodi-0.dtd"
   xmlns:xlink="http://www.w3.org/1999/xlink"
   xmlns="http://www.w3.org/2000/svg"
   xmlns:svg="http://www.w3.org/2000/svg"
   xmlns:rdf="http://www.w3.org/1999/02/22-rdf-syntax-ns#"
   xmlns:cc="http://creativecommons.org/ns#"
   xmlns:dc="http://purl.org/dc/elements/1.1/">
  <defs
     id="defs">
    <linearGradient
       inkscape:collect="always"
       id="linearGradient14867">
      <stop
         style="stop-color:#b3b3b3;stop-opacity:1"
         offset="0"
         id="stop14863" />
      <stop
         style="stop-color:#666666;stop-opacity:1"
         offset="1"
         id="stop14865" />
    </linearGradient>
    <linearGradient
       inkscape:collect="always"
       id="linearGradient12704-4-8">
      <stop
         style="stop-color:#ffca1e;stop-opacity:1"
         offset="0"
         id="stop12700" />
      <stop
         style="stop-color:#ff6600;stop-opacity:1"
         offset="1"
         id="stop12702" />
    </linearGradient>
    <linearGradient
       inkscape:collect="always"
       xlink:href="#linearGradient12704-4-8"
       id="linearGradient3333"
       gradientUnits="userSpaceOnUse"
       gradientTransform="matrix(1.000021,0,0,1.0045441,-228.00874,-71.682156)"
       x1="430.83685"
       y1="89.194649"
       x2="430.83685"
       y2="117.13417" />
    <radialGradient
       inkscape:collect="always"
       xlink:href="#linearGradient14867"
       id="radialGradient3335"
       gradientUnits="userSpaceOnUse"
       gradientTransform="matrix(2.0550253,0.0358045,-0.02113749,1.1817623,89.525333,-17.120709)"
       cx="41.555763"
       cy="34.982002"
       fx="41.555763"
       fy="34.982002"
       r="19.952215" />
  </defs>
  <sodipodi:namedview
     id="base"
     pagecolor="#ffffff"
     bordercolor="#666666"
     borderopacity="1.0"
     inkscape:pageopacity="1"
     inkscape:pageshadow="2"
     inkscape:zoom="3.7335238"
     inkscape:cx="148.65313"
     inkscape:cy="67.228713"
     inkscape:document-units="px"
     inkscape:current-layer="svg2"
     showgrid="false"
     units="px"
     inkscape:window-width="3840"
     inkscape:window-height="2063"
     inkscape:window-x="3840"
     inkscape:window-y="57"
     inkscape:window-maximized="1"
     inkscape:snap-bbox="true"
     inkscape:bbox-nodes="true"
     inkscape:object-paths="true"
     inkscape:object-nodes="true"
     inkscape:snap-smooth-nodes="true"
     inkscape:snap-object-midpoints="true"
     inkscape:snap-center="true"
     inkscape:snap-others="true"
     inkscape:snap-global="true"
     showguides="false"
     fit-margin-top="0"
     fit-margin-left="0"
     fit-margin-right="0"
     fit-margin-bottom="0"
     inkscape:pagecheckerboard="0"
     inkscape:snap-nodes="false"
     inkscape:snap-bbox-midpoints="true"
     inkscape:snap-bbox-edge-midpoints="true">
    <inkscape:grid
       type="xygrid"
       id="grid1"
       empspacing="8"
       originx="0"
       originy="0" />
  </sodipodi:namedview>
  <metadata
     id="metadata">
    <rdf:RDF>
      <cc:Work
         rdf:about="">
        <dc:format>image/svg+xml</dc:format>
        <dc:type
           rdf:resource="http://purl.org/dc/dcmitype/StillImage" />
      </cc:Work>
    </rdf:RDF>
  </metadata>
  <g
     inkscape:label="Ebene 1"
     inkscape:groupmode="layer"
     id="layer1"
     transform="translate(-37.150434,-125.66708)" />
  <g
     transform="matrix(0.77857717,0,0,0.77857717,-804.83366,156.86316)"
     id="g1818" />
  <path
     id="path10883"
     style="color:#000000;fill:#666666;fill-opacity:1;stroke-linecap:square;stroke-linejoin:round;-inkscape-stroke:none;paint-order:markers fill stroke"
     d="m 288,162 v 4 h 15 c 1.6966,0 3,1.30341 3,3 v 1.68164 C 305.08904,170.24478 304.07111,170 303,170 h -10 c -3.84342,-1e-5 -7,3.15659 -7,7 0,3.84341 3.1566,6.99999 7,7 h 10 c 1.0711,0 2.08904,-0.24478 3,-0.68164 V 184 h 4 v -15 c 0,-3.84341 -3.15659,-7 -7,-7 z m 25,0 v 15 c 0,3.84341 3.15659,7 7,7 h 9 c 1.07111,0 2.08904,-0.24478 3,-0.68164 V 184 h 4 v -22 h -4 v 15 c 0,1.69659 -1.3034,3 -3,3 h -9 c -1.6966,0 -3,-1.30341 -3,-3 v -15 z m 25,0 11.15234,11 L 338,184 h 5.69727 L 352,175.81055 360.30273,184 H 366 L 354.84766,173 366,162 h -5.69727 L 352,170.18945 343.69727,162 Z m -45,12 h 10 c 1.6966,-1e-5 3,1.30341 3,3 0,1.6966 -1.30338,2.99999 -3,3 h -10 c -1.69662,-1e-5 -3,-1.3034 -3,-3 0,-1.69659 1.3034,-3.00001 3,-3 z" />
  <path
     style="color:#000000;clip-rule:nonzero;display:inline;overflow:visible;visibility:visible;isolation:auto;mix-blend-mode:normal;color-interpolation:sRGB;color-interpolation-filters:linearRGB;solid-color:#000000;solid-opacity:1;vector-effect:none;fill:#666666;fill-opacity:1;fill-rule:nonzero;stroke:none;stroke-width:49.8289;stroke-linecap:round;stroke-linejoin:round;stroke-miterlimit:4;stroke-dasharray:none;stroke-dashoffset:0;stroke-opacity:1;marker:none;paint-order:normal;color-rendering:auto;image-rendering:auto;shape-rendering:auto;text-rendering:auto;enable-background:accumulate"
     d="m 325.84117,120 c -8.57903,9e-5 -17.5307,2.92499 -20.83694,7.7662 -0.26471,0.38767 -0.48526,0.7806 -0.6726,1.17637 h -0.003 l -0.019,0.0436 c -0.12911,0.27722 -0.24321,0.55627 -0.33494,0.83598 l -1.53853,3.83136 c -1.07231,0.88415 -1.99082,1.83634 -2.69312,2.86467 -6.06474,8.88188 4.21087,19.81531 26.09791,19.81578 21.88705,-4.7e-4 32.16265,-10.9339 26.09791,-19.81578 -0.70209,-1.02805 -1.6212,-1.98071 -2.69312,-2.86467 l -1.5467,-3.85859 c -0.0875,-0.26326 -0.19525,-0.52592 -0.31588,-0.78697 l -0.0272,-0.0653 h -0.005 c -0.18734,-0.39577 -0.40791,-0.7887 -0.6726,-1.17637 -3.3062,-4.84124 -12.25791,-7.76611 -20.83694,-7.7662 z m -0.13888,1.24989 c 3.58677,0 6.91689,0.51463 9.68596,1.39421 -0.30252,-0.0266 -0.6059,-0.0544 -0.90406,-0.0599 -0.11271,-0.002 -0.22448,-0.003 -0.33493,-0.003 -0.78255,0.007 -1.4917,0.0931 -2.06137,0.25053 -1.89842,0.52457 -1.87024,1.71974 0.14705,2.68767 0.99121,0.4759 2.3325,0.82952 3.72243,0.97486 1.39636,0.14609 2.70806,0.0681 3.6353,-0.2124 0.70095,-0.21225 1.10512,-0.51401 1.23628,-0.85777 1.43695,1.19654 2.26831,2.57504 2.26832,4.0492 1e-5,4.54165 -7.78764,7.44216 -17.39498,7.44216 -9.60734,0 -17.39771,-2.90051 -17.3977,-7.44216 0,-4.54166 7.79036,-8.22367 17.3977,-8.22367 z"
     id="path11588"
     inkscape:connector-curvature="0" />
  <path
     inkscape:connector-curvature="0"
     id="path11590"
     d="m 351.23647,129.27932 c -0.25069,-0.001 -0.48851,0.0121 -0.70663,0.0401 -0.64243,0.0825 -1.08603,0.285 -1.23432,0.56779 -0.15073,0.28734 0.0164,0.63341 0.47211,0.96585 0.46347,0.33851 1.18646,0.63412 2.00886,0.81465 0.83038,0.18228 1.68206,0.2337 2.36063,0.13886 0.67519,-0.0944 1.11372,-0.32402 1.21888,-0.63259 0.10348,-0.30347 -0.12624,-0.65813 -0.62641,-0.98436 -0.82676,-0.53913 -2.24695,-0.90539 -3.49312,-0.91031 z m 4.4312,3.84798 c -0.81455,-1.2e-4 -1.46303,0.15678 -1.80827,0.43818 -0.35026,0.28545 -0.36533,0.67637 -0.0278,1.09546 0.34458,0.42786 1.02624,0.84898 1.89775,1.16334 0.88492,0.31918 1.88376,0.50003 2.76487,0.4999 1.83415,-2.4e-4 2.58915,-0.76228 1.72188,-1.66324 -0.40324,-0.41897 -1.11113,-0.81001 -1.96565,-1.09546 -0.8423,-0.28135 -1.76858,-0.43808 -2.58281,-0.43818 z m 2.7988,4.80149 c -1.48582,0.0311 -2.33487,0.59873 -2.08907,1.42563 0.15341,0.51559 0.71871,1.07724 1.58301,1.56141 0.88262,0.49442 1.99394,0.86333 3.0827,1.01522 2.28818,0.3194 3.71868,-0.38289 3.1938,-1.5213 -0.24328,-0.52766 -0.88233,-1.07864 -1.77126,-1.53054 -0.87128,-0.44293 -1.91888,-0.75992 -2.91914,-0.88871 -0.37637,-0.0483 -0.74078,-0.0689 -1.08004,-0.0617 z m 1.03375,6.22402 c -1.44077,-0.0205 -2.44163,0.44152 -2.61675,1.22199 -0.27597,1.22576 1.5338,2.88219 4.12262,3.66591 1.27057,0.38444 2.53061,0.49069 3.48076,0.29007 0.9432,-0.19917 1.48529,-0.67971 1.51203,-1.32382 0.055,-1.29248 -1.93537,-2.85733 -4.38182,-3.53322 -0.72923,-0.2013 -1.45655,-0.31162 -2.11684,-0.32093 z m -3.19689,6.20862 c -1.13465,0.0123 -2.04134,0.33007 -2.53034,0.89796 -0.5094,0.59124 -0.53449,1.41595 -0.0524,2.29892 0.49703,0.91036 1.49149,1.80925 2.7772,2.49023 2.77083,1.46793 5.90864,1.46793 6.84428,0 0.43434,-0.68098 0.30472,-1.57987 -0.33635,-2.49023 -0.62179,-0.88297 -1.67369,-1.70768 -2.92224,-2.29892 -1.24552,-0.58994 -2.60141,-0.90996 -3.7801,-0.89796 z"
     style="color:#000000;clip-rule:nonzero;display:inline;overflow:visible;visibility:visible;isolation:auto;mix-blend-mode:normal;color-interpolation:sRGB;color-interpolation-filters:linearRGB;solid-color:#000000;solid-opacity:1;vector-effect:none;fill:#ff7f2a;fill-opacity:1;fill-rule:nonzero;stroke:none;stroke-width:56.4662;stroke-linecap:round;stroke-linejoin:round;stroke-miterlimit:4;stroke-dasharray:none;stroke-dashoffset:0;stroke-opacity:1;marker:none;paint-order:normal;color-rendering:auto;image-rendering:auto;shape-rendering:auto;text-rendering:auto;enable-background:accumulate" />
  <path
     style="color:#000000;clip-rule:nonzero;display:inline;overflow:visible;visibility:visible;isolation:auto;mix-blend-mode:normal;color-interpolation:sRGB;color-interpolation-filters:linearRGB;solid-color:#000000;solid-opacity:1;vector-effect:none;fill:#ff7f2a;fill-opacity:1;fill-rule:nonzero;stroke:none;stroke-width:56.4662;stroke-linecap:round;stroke-linejoin:round;stroke-miterlimit:4;stroke-dasharray:none;stroke-dashoffset:0;stroke-opacity:1;marker:none;paint-order:normal;color-rendering:auto;image-rendering:auto;shape-rendering:auto;text-rendering:auto;enable-background:accumulate"
     d="m 300.36819,129.27827 c -1.22933,0.0201 -2.60432,0.38402 -3.41158,0.91055 -0.50015,0.32623 -0.72809,0.68157 -0.62466,0.98504 0.10517,0.30858 0.54287,0.53747 1.21809,0.63186 0.67856,0.095 1.53129,0.0453 2.36167,-0.13695 0.82236,-0.18052 1.54507,-0.47593 2.00851,-0.81445 0.45511,-0.33244 0.6216,-0.67848 0.47089,-0.96581 -0.1483,-0.2828 -0.59246,-0.48686 -1.23489,-0.5694 -0.24141,-0.0311 -0.50774,-0.0455 -0.78803,-0.0408 z m -4.34856,3.84884 c -0.81424,1e-4 -1.73804,0.1559 -2.58032,0.43726 -0.85453,0.28544 -1.56441,0.67898 -1.96766,1.09795 -0.86727,0.90097 -0.11157,1.66232 1.7226,1.66255 1.83456,-2.3e-4 3.93287,-0.76158 4.6585,-1.66255 0.33749,-0.41897 0.32586,-0.8125 -0.024,-1.09795 -0.34488,-0.28134 -0.99505,-0.43716 -1.8091,-0.43726 z m -2.89986,4.80024 c -0.31056,-10e-4 -0.63831,0.0209 -0.97782,0.0648 -1.00025,0.12887 -2.04778,0.44602 -2.91906,0.88895 -0.88896,0.45191 -1.52978,1.00036 -1.77307,1.528 -0.52488,1.13842 0.9072,1.84019 3.19537,1.5208 1.08875,-0.15187 2.20219,-0.51944 3.08483,-1.01386 0.8643,-0.48415 1.42985,-1.04605 1.58326,-1.56164 0.25246,-0.84702 -0.64794,-1.41932 -2.1911,-1.42711 z m -0.62224,5.67958 v 0.002 c -0.66031,0.01 -1.38499,0.11821 -2.11422,0.31954 -2.44646,0.67588 -4.4371,2.2392 -4.3822,3.5317 0.0267,0.6441 0.56798,1.12462 1.51118,1.32379 0.95015,0.20062 2.20827,0.0961 3.47886,-0.2883 2.5888,-0.78373 4.40111,-2.44049 4.12512,-3.66625 -0.16359,-0.72705 -1.0472,-1.17979 -2.34486,-1.21809 -0.0898,-0.003 -0.18089,-0.005 -0.27388,-0.005 z m 3.07282,6.21052 c -1.14971,0.0123 -2.45439,0.33023 -3.65423,0.89854 -1.24857,0.59123 -2.30208,1.41145 -2.92387,2.29441 -0.64109,0.91037 -0.77069,1.81044 -0.33636,2.49142 0.93564,1.46794 4.07397,1.46794 6.84479,0 1.2857,-0.68098 2.28028,-1.58105 2.77731,-2.49142 0.48209,-0.88296 0.45657,-1.70318 -0.0529,-2.29441 -0.50763,-0.58953 -1.46221,-0.91008 -2.65479,-0.89854 z"
     id="path11592"
     inkscape:connector-curvature="0"
     sodipodi:nodetypes="ccccccccccccccccccccccccccccccccscccccscccccc" />
  <path
     id="path3327"
     style="color:#000000;fill:#666666;fill-opacity:1;stroke-linecap:square;stroke-linejoin:round;-inkscape-stroke:none;paint-order:markers fill stroke"
     d="m 150,50.00005 v 4 h 15 c 1.6966,0 3,1.30341 3,3 v 1.68164 c -0.91096,-0.43686 -1.92889,-0.68164 -3,-0.68164 h -10 c -3.84342,-1e-5 -7,3.15659 -7,7 0,3.84341 3.1566,6.99999 7,7 h 10 c 1.0711,0 2.08904,-0.24478 3,-0.68164 v 0.68164 h 4 v -15 c 0,-3.84341 -3.15659,-7 -7,-7 z m 25,0 v 15 c 0,3.84341 3.15659,7 7,7 h 9 c 1.07111,0 2.08904,-0.24478 3,-0.68164 v 0.68164 h 4 v -22 h -4 v 15 c 0,1.69659 -1.3034,3 -3,3 h -9 c -1.6966,0 -3,-1.30341 -3,-3 v -15 z m 25,0 11.15234,11 -11.15234,11 h 5.69727 L 214,63.8106 l 8.30273,8.18945 H 228 l -11.15234,-11 11.15234,-11 h -5.69727 L 214,58.1895 205.69727,50.00005 Z m -45,12 h 10 c 1.6966,-1e-5 3,1.30341 3,3 0,1.6966 -1.30338,2.99999 -3,3 h -10 c -1.69662,-1e-5 -3,-1.3034 -3,-3 0,-1.69659 1.3034,-3.00001 3,-3 z" />
  <path
     style="color:#000000;clip-rule:nonzero;display:inline;overflow:visible;visibility:visible;isolation:auto;mix-blend-mode:normal;color-interpolation:sRGB;color-interpolation-filters:linearRGB;solid-color:#000000;solid-opacity:1;vector-effect:none;fill:url(#radialGradient3335);fill-opacity:1;fill-rule:nonzero;stroke:none;stroke-width:49.8289;stroke-linecap:round;stroke-linejoin:round;stroke-miterlimit:4;stroke-dasharray:none;stroke-dashoffset:0;stroke-opacity:1;marker:none;paint-order:normal;color-rendering:auto;image-rendering:auto;shape-rendering:auto;text-rendering:auto;enable-background:accumulate"
     d="m 188.00017,8.0000498 c -8.63527,8.92e-5 -17.64563,2.8981032 -20.97355,7.6948132 -0.26644,0.384107 -0.48844,0.773425 -0.67701,1.165547 h -0.003 l -0.0191,0.0432 c -0.12996,0.274682 -0.24481,0.551167 -0.33714,0.828306 l -1.54861,3.796142 c -1.07934,0.876023 -2.00388,1.819461 -2.71078,2.838339 -6.1045,8.800238 4.23848,19.633168 26.26901,19.633634 22.03055,-4.66e-4 32.37352,-10.833396 26.26902,-19.633634 -0.7067,-1.018601 -1.63183,-1.962504 -2.71078,-2.838339 l -1.55684,-3.823122 c -0.0881,-0.26084 -0.19653,-0.521085 -0.31795,-0.779736 l -0.0274,-0.0648 h -0.005 c -0.18857,-0.392132 -0.41059,-0.78145 -0.67701,-1.165566 -3.32788,-4.79674 -12.33828,-7.6947149 -20.97355,-7.694804 z m -0.13979,1.2384011 c 3.61029,0 6.96224,0.5098995 9.74947,1.3813941 -0.30451,-0.02636 -0.60988,-0.0539 -0.90999,-0.05935 -0.11345,-0.002 -0.22595,-0.003 -0.33713,-0.003 -0.78768,0.0069 -1.50148,0.09224 -2.07488,0.248227 -1.91087,0.519748 -1.8825,1.703932 0.14801,2.662965 0.99771,0.471525 2.34779,0.821895 3.74684,0.965899 1.40551,0.144747 2.72581,0.06747 3.65913,-0.210448 0.70555,-0.210299 1.11237,-0.509285 1.24439,-0.849885 1.44637,1.185541 2.28318,2.55137 2.28319,4.01198 1e-5,4.499903 -7.8387,7.373752 -17.50903,7.373752 -9.67032,0 -17.51177,-2.873849 -17.51176,-7.373752 0,-4.499914 7.84144,-8.1480787 17.51176,-8.1480787 z"
     id="path3329"
     inkscape:connector-curvature="0" />
  <path
     id="path3331"
     style="color:#000000;clip-rule:nonzero;display:inline;overflow:visible;visibility:visible;isolation:auto;mix-blend-mode:normal;color-interpolation:sRGB;color-interpolation-filters:linearRGB;solid-color:#000000;solid-opacity:1;vector-effect:none;fill:url(#linearGradient3333);fill-opacity:1;fill-rule:nonzero;stroke:none;stroke-width:56.4662;stroke-linecap:round;stroke-linejoin:round;stroke-miterlimit:4;stroke-dasharray:none;stroke-dashoffset:0;stroke-opacity:1;marker:none;paint-order:normal;color-rendering:auto;image-rendering:auto;shape-rendering:auto;text-rendering:auto;enable-background:accumulate"
     d="m 162.3686,18.00087 c -1.22936,0.02019 -2.60491,0.387332 -3.41218,0.916254 -0.50016,0.327713 -0.72845,0.684004 -0.62502,0.988853 0.10518,0.309983 0.54354,0.540857 1.21878,0.635686 0.67857,0.09543 1.53098,0.0438 2.36138,-0.1393 0.82238,-0.18134 1.5444,-0.478103 2.00785,-0.818151 0.45512,-0.333951 0.62142,-0.680599 0.47071,-0.969234 -0.1483,-0.284086 -0.59195,-0.489987 -1.2344,-0.572902 -0.24141,-0.03124 -0.50683,-0.04593 -0.78712,-0.04121 z m 50.86826,0.002 c -0.2507,-0.001 -0.48892,0.01111 -0.70705,0.03924 -0.64244,0.08288 -1.08611,0.286868 -1.2344,0.570943 -0.15074,0.288646 0.0169,0.637242 0.47267,0.971193 0.46347,0.340048 1.18738,0.636801 2.0098,0.818151 0.83039,0.183108 1.68084,0.234571 2.35943,0.1393 0.6752,-0.09483 1.11361,-0.325713 1.21877,-0.635685 0.10348,-0.304849 -0.12483,-0.661141 -0.62501,-0.988854 -0.82678,-0.541579 -2.24802,-0.909343 -3.49421,-0.914285 z m -55.21796,3.865134 c -0.81426,10e-5 -1.73784,0.156849 -2.58014,0.439488 -0.85455,0.286737 -1.56553,0.681774 -1.96879,1.102648 -0.86729,0.905064 -0.11151,1.669431 1.7227,1.669662 1.8346,-2.31e-4 3.93461,-0.764598 4.66025,-1.669662 0.3375,-0.420874 0.32448,-0.815901 -0.0254,-1.102648 -0.34487,-0.282619 -0.99456,-0.439388 -1.80862,-0.439488 z m 59.64969,0 c -0.81457,-1.21e-4 -1.46338,0.158778 -1.80863,0.441457 -0.35027,0.286747 -0.36489,0.677725 -0.0273,1.09872 0.34459,0.429804 1.025,0.853561 1.89653,1.169349 0.88494,0.320631 1.88455,0.502403 2.76568,0.502272 1.83419,-2.41e-4 2.58998,-0.766567 1.72269,-1.671621 -0.40324,-0.420874 -1.1123,-0.811973 -1.96684,-1.09872 -0.84231,-0.282629 -1.76783,-0.441367 -2.58208,-0.441457 z m -62.55014,4.822555 c -0.31057,-0.001 -0.63707,0.02069 -0.97658,0.06479 -1.00028,0.129456 -2.04869,0.447765 -2.91999,0.892708 -0.88897,0.453964 -1.53018,1.004243 -1.77347,1.534281 -0.52489,1.143593 0.90716,1.849245 3.19537,1.528403 1.08878,-0.15256 2.20335,-0.521609 3.08601,-1.018276 0.86432,-0.48635 1.42865,-1.051667 1.58206,-1.5696 0.25247,-0.850869 -0.6463,-1.424444 -2.18949,-1.432269 z m 65.34903,0.002 c -1.48585,0.03124 -2.3357,0.599642 -2.0899,1.4303 0.15342,0.517933 0.71971,1.08323 1.58403,1.5696 0.88264,0.496667 1.99331,0.867655 3.08209,1.020235 2.28823,0.320852 3.71832,-0.384811 3.19343,-1.528394 -0.24329,-0.530057 -0.88258,-1.084254 -1.77153,-1.538208 -0.8713,-0.444942 -1.91775,-0.763343 -2.91802,-0.892718 -0.37639,-0.04852 -0.74084,-0.06801 -1.0801,-0.06077 z m -65.97014,5.701571 v 0.002 0.002 c -0.66032,0.01005 -1.38604,0.117552 -2.11528,0.319797 -2.44651,0.678951 -4.43586,2.250892 -4.38095,3.549265 0.0267,0.647027 0.56658,1.128194 1.5098,1.328269 0.95017,0.201531 2.20796,0.09774 3.47858,-0.288415 2.58886,-0.787291 4.40304,-2.451339 4.12705,-3.682669 -0.1636,-0.730353 -1.04807,-1.185814 -2.34576,-1.224288 -0.0898,-0.003 -0.18045,-0.006 -0.27344,-0.006 z m 67.00336,0.549355 c -1.4408,-0.02059 -2.44212,0.4442 -2.61725,1.228216 -0.27597,1.23133 1.53427,2.895398 4.12314,3.682679 1.2706,0.386187 2.53037,0.491905 3.48054,0.290373 0.94322,-0.200075 1.48502,-0.681241 1.51176,-1.328278 0.055,-1.298353 -1.93445,-2.870294 -4.38096,-3.549255 -0.72924,-0.202215 -1.45693,-0.314382 -2.11723,-0.323735 z m -63.93103,5.691767 c -1.14974,0.01236 -2.4545,0.33163 -3.65437,0.902523 -1.2486,0.593916 -2.30209,1.416417 -2.92389,2.303389 -0.6411,0.914507 -0.77029,1.819431 -0.33595,2.503505 0.93566,1.47461 4.07302,1.47461 6.8439,0 1.28572,-0.684074 2.28035,-1.588998 2.77739,-2.503505 0.4821,-0.886972 0.45675,-1.709473 -0.0527,-2.303389 -0.50764,-0.592209 -1.46175,-0.914115 -2.65435,-0.902523 z m 60.73369,0.545438 c -1.13467,0.01235 -2.04033,0.332052 -2.52934,0.902522 -0.50941,0.593927 -0.53484,1.422284 -0.0527,2.309266 0.49704,0.914497 1.49167,1.817482 2.77741,2.501556 2.77088,1.474601 5.90823,1.474601 6.84389,0 0.43435,-0.684074 0.30514,-1.587059 -0.33595,-2.501556 -0.6218,-0.886982 -1.67336,-1.715339 -2.92194,-2.309266 -1.24554,-0.592621 -2.60261,-0.914577 -3.78133,-0.902522 z" />
</svg>
