<?xml version="1.0" encoding="UTF-8" standalone="no"?>
<!-- Created with Inkscape (http://www.inkscape.org/) -->

<svg
   xmlns:dc="http://purl.org/dc/elements/1.1/"
   xmlns:cc="http://creativecommons.org/ns#"
   xmlns:rdf="http://www.w3.org/1999/02/22-rdf-syntax-ns#"
   xmlns:svg="http://www.w3.org/2000/svg"
   xmlns="http://www.w3.org/2000/svg"
   xmlns:sodipodi="http://sodipodi.sourceforge.net/DTD/sodipodi-0.dtd"
   xmlns:inkscape="http://www.inkscape.org/namespaces/inkscape"
   width="68.554779"
   height="68.554947"
   viewBox="0 0 68.554779 68.554947"
   id="svg2"
   version="1.1"
   inkscape:version="0.92.5 (2060ec1f9f, 2020-04-08)"
   sodipodi:docname="AUXLogo.svg"
   inkscape:export-filename="/home/markus/DeusO/Development/AUX/AUXLogo.png"
   inkscape:export-xdpi="300"
   inkscape:export-ydpi="300">
  <defs
     id="defs" />
  <sodipodi:namedview
     id="base"
     pagecolor="#ffffff"
     bordercolor="#666666"
     borderopacity="1.0"
     inkscape:pageopacity="0.0"
     inkscape:pageshadow="2"
     inkscape:zoom="4"
     inkscape:cx="22.669211"
     inkscape:cy="52.829214"
     inkscape:document-units="px"
     inkscape:current-layer="svg2"
     showgrid="false"
     units="px"
     inkscape:window-width="3840"
     inkscape:window-height="2063"
     inkscape:window-x="0"
     inkscape:window-y="57"
     inkscape:window-maximized="1"
     inkscape:snap-bbox="true"
     inkscape:bbox-nodes="true"
     inkscape:object-paths="true"
     inkscape:object-nodes="true"
     inkscape:snap-smooth-nodes="true"
     inkscape:snap-object-midpoints="true"
     inkscape:snap-center="true"
     inkscape:snap-others="true"
     inkscape:snap-global="false"
     showguides="false"
     fit-margin-top="0"
     fit-margin-left="0"
     fit-margin-right="0"
     fit-margin-bottom="0">
    <inkscape:grid
       type="xygrid"
       id="grid1"
       empspacing="8"
       originx="-37.150434"
       originy="-61.77798" />
  </sodipodi:namedview>
  <metadata
     id="metadata">
    <rdf:RDF>
      <cc:Work
         rdf:about="">
        <dc:format>image/svg+xml</dc:format>
        <dc:type
           rdf:resource="http://purl.org/dc/dcmitype/StillImage" />
        <dc:title></dc:title>
      </cc:Work>
    </rdf:RDF>
  </metadata>
  <g
     inkscape:label="Ebene 1"
     inkscape:groupmode="layer"
     id="layer1"
     transform="translate(-37.150434,-125.66708)" />
  <rect
     inkscape:export-ydpi="358.48703"
     inkscape:export-xdpi="358.48703"
     style="color:#000000;clip-rule:nonzero;display:inline;overflow:visible;visibility:visible;opacity:1;isolation:auto;mix-blend-mode:normal;color-interpolation:sRGB;color-interpolation-filters:linearRGB;solid-color:#000000;solid-opacity:1;vector-effect:none;fill:#ffffff;fill-opacity:1;fill-rule:nonzero;stroke:none;stroke-width:6.8325243;stroke-linecap:square;stroke-linejoin:round;stroke-miterlimit:4;stroke-dasharray:none;stroke-dashoffset:0;stroke-opacity:1;marker:none;paint-order:normal;color-rendering:auto;image-rendering:auto;shape-rendering:auto;text-rendering:auto;enable-background:accumulate"
     id="rect887"
     width="68.554779"
     height="68.554947"
     x="0"
     y="0" />
  <g
     aria-label="AUX"
     style="font-style:normal;font-variant:normal;font-weight:normal;font-stretch:expanded;font-size:24px;line-height:100%;font-family:'Zurich BdEx BT';-inkscape-font-specification:'Zurich BdEx BT, Expanded';font-variant-ligatures:normal;font-variant-position:normal;font-variant-caps:normal;font-variant-numeric:normal;font-variant-alternates:normal;font-feature-settings:normal;text-indent:0;text-align:center;text-decoration:none;text-decoration-line:none;text-decoration-style:solid;text-decoration-color:#000000;letter-spacing:0.12px;word-spacing:0px;text-transform:none;writing-mode:lr-tb;direction:ltr;text-orientation:mixed;dominant-baseline:auto;baseline-shift:baseline;text-anchor:middle;white-space:normal;shape-padding:0;opacity:1;vector-effect:none;fill:#000000;fill-opacity:1;stroke:none;stroke-width:1px;stroke-linecap:butt;stroke-linejoin:miter;stroke-miterlimit:4;stroke-dasharray:none;stroke-dashoffset:0;stroke-opacity:1"
     id="text1468"
     transform="translate(861.70362,48.177117)"
     inkscape:export-xdpi="298.48499"
     inkscape:export-ydpi="298.48499">
    <path
       d="m -849.24266,-2.4785767 h 6.72656 l -3.19922,-7.1367187 z m -7.48828,7.1484375 8.66015,-17.2851558 h 4.75782 l 8.42578,17.2851558 h -4.3711 l -1.94531,-4.24218746 h -9.43359 l -1.96875,4.24218746 z"
       style="fill:#ee6b11;fill-opacity:1"
       id="path1470"
       inkscape:connector-curvature="0" />
    <path
       d="m -836.09746,-12.615295 h 3.83203 v 8.5546871 q 0,1.8632812 0.1875,2.8242187 0.19922,0.96093754 0.63282,1.55859379 0.60937,0.83203121 1.6289,1.27734371 1.03125,0.4335938 2.35547,0.4335938 1.33594,0 2.29688,-0.4101563 0.97265,-0.421875 1.59375,-1.25390621 0.46875,-0.62109375 0.65625,-1.55859379 0.19921,-0.9492187 0.19921,-2.8710937 v -8.5546871 h 3.65625 v 10.0078121 q 0,2.26171874 -0.51562,3.53906249 -0.50391,1.27734371 -1.74609,2.29687501 -1.05469,0.8789062 -2.67188,1.3476562 -1.60547,0.4570313 -3.60937,0.4570313 -1.99219,0 -3.58594,-0.4570313 -1.58203,-0.46875 -2.6836,-1.3710937 -1.21875,-1.0078125 -1.72265,-2.28515626 -0.50391,-1.2890625 -0.50391,-3.52734374 z"
       id="path1472"
       inkscape:connector-curvature="0"
       style="fill:#222525;fill-opacity:1" />
    <path
       d="m -821.1321,4.6698608 8.01563,-9.046875 -7.17188,-8.2382808 h 4.60547 l 5.13282,6.0820308 5.05078,-6.0820308 h 4.51172 l -7.20704,8.4960933 7.51172,8.7890625 h -4.65234 l -5.58984,-6.5742187 -5.47266,6.5742187 z"
       id="path1474"
       inkscape:connector-curvature="0"
       style="fill:#000000;fill-opacity:0.99299753" />
  </g>
  <g
     transform="matrix(0.77857717,0,0,0.77857717,6.020383,170.70735)"
     id="g1497"
     inkscape:export-xdpi="298.48499"
     inkscape:export-ydpi="298.48499">
    <path
       style="color:#000000;clip-rule:nonzero;display:inline;overflow:visible;visibility:visible;opacity:1;isolation:auto;mix-blend-mode:normal;color-interpolation:sRGB;color-interpolation-filters:linearRGB;solid-color:#000000;solid-opacity:1;vector-effect:none;fill:#222525;fill-opacity:1;fill-rule:nonzero;stroke:none;stroke-width:49.82893753;stroke-linecap:round;stroke-linejoin:round;stroke-miterlimit:4;stroke-dasharray:none;stroke-dashoffset:0;stroke-opacity:1;marker:none;paint-order:normal;color-rendering:auto;image-rendering:auto;shape-rendering:auto;text-rendering:auto;enable-background:accumulate"
       d="m 46.914062,22.054688 c -6.153313,6.2e-5 -12.573906,2.097951 -14.945312,5.570312 -0.189864,0.278061 -0.348055,0.559889 -0.482422,0.84375 h -0.002 L 31.470703,28.5 c -0.0926,0.198841 -0.174444,0.398986 -0.240234,0.599609 l -1.103516,2.748047 c -0.76911,0.634159 -1.427917,1.317118 -1.931641,2.054688 -4.349941,6.370536 3.020252,14.212548 18.71875,14.21289 15.698506,-3.42e-4 23.068692,-7.842354 18.71875,-14.21289 -0.503575,-0.737367 -1.162803,-1.420669 -1.93164,-2.054688 l -1.109375,-2.767578 c -0.06275,-0.18882 -0.140039,-0.377214 -0.226563,-0.564453 l -0.01953,-0.04687 h -0.0039 C 62.20743,28.184889 62.049231,27.903061 61.859375,27.625 59.488,24.152616 53.067384,22.05475 46.914062,22.054688 Z m -0.09961,0.896484 c 2.572617,0 4.961146,0.369116 6.947266,1 -0.216982,-0.01908 -0.434585,-0.03902 -0.648438,-0.04297 -0.08084,-0.0016 -0.161014,-0.002 -0.240234,-0.002 -0.561279,0.0047 -1.069922,0.06679 -1.478516,0.179688 -1.361644,0.376255 -1.341429,1.233492 0.105469,1.927734 0.710945,0.341344 1.672991,0.594975 2.669922,0.699219 1.001538,0.104788 1.942358,0.04883 2.607422,-0.152344 0.502752,-0.152231 0.792647,-0.368674 0.886718,-0.615235 1.030657,0.858223 1.626951,1.846953 1.626954,2.904297 7e-6,3.257497 -5.585688,5.337891 -12.476563,5.337891 -6.890875,0 -12.478523,-2.080394 -12.478515,-5.337891 0,-3.257512 5.58764,-5.898437 12.478515,-5.898437 z"
       transform="matrix(1.2843942,0,0,1.2843942,-20.255388,-238.79104)"
       id="path1489"
       inkscape:connector-curvature="0" />
    <path
       inkscape:connector-curvature="0"
       id="path1493"
       d="m 63.395751,-201.91571 c -0.230941,-9.6e-4 -0.450034,0.0111 -0.650977,0.0369 -0.591827,0.076 -1.000481,0.26255 -1.137093,0.52306 -0.138852,0.26471 0.01514,0.58352 0.434926,0.88978 0.426965,0.31184 1.093006,0.58417 1.850626,0.75048 0.76497,0.16792 1.549574,0.21529 2.174687,0.12792 0.622013,-0.087 1.025996,-0.2985 1.122872,-0.58276 0.09533,-0.27957 -0.116292,-0.60629 -0.577067,-0.90683 -0.761637,-0.49666 -2.069966,-0.83407 -3.217974,-0.8386 z m 4.082164,3.54488 c -0.750387,-1.1e-4 -1.347787,0.14443 -1.665838,0.40367 -0.322665,0.26296 -0.336551,0.62309 -0.02562,1.00917 0.31744,0.39416 0.945406,0.78211 1.748276,1.07171 0.815214,0.29404 1.735381,0.46064 2.547087,0.46052 1.689678,-2.2e-4 2.385208,-0.70223 1.586252,-1.53223 -0.371481,-0.38597 -1.023608,-0.74621 -1.810818,-1.00917 -0.775959,-0.25919 -1.629276,-0.40358 -2.379372,-0.40367 z m 2.578349,4.42329 c -1.368789,0.0287 -2.150963,0.55157 -1.92452,1.31334 0.141327,0.47498 0.662097,0.99239 1.458316,1.43842 0.813103,0.45548 1.836886,0.79533 2.839885,0.93526 2.107954,0.29424 3.425773,-0.35273 2.942234,-1.40147 -0.224115,-0.4861 -0.812826,-0.99368 -1.631736,-1.40999 -0.802653,-0.40804 -1.767736,-0.70006 -2.689214,-0.81871 -0.346724,-0.0445 -0.68243,-0.0635 -0.994965,-0.0568 z m 0.95232,5.73378 c -1.32728,-0.0189 -2.24931,0.40674 -2.410636,1.12573 -0.254228,1.12921 1.412993,2.65517 3.797895,3.37716 1.170495,0.35416 2.331283,0.45204 3.206592,0.26722 0.868906,-0.18348 1.368295,-0.62617 1.392936,-1.21954 0.05065,-1.19068 -1.782931,-2.63227 -4.03668,-3.25492 -0.67179,-0.18545 -1.34182,-0.28708 -1.950107,-0.29565 z m -2.945072,5.71958 c -1.045281,0.0113 -1.880551,0.30407 -2.331036,0.82723 -0.469275,0.54467 -0.492388,1.30442 -0.04832,2.11784 0.457878,0.83866 1.374014,1.66674 2.558453,2.29408 2.552573,1.35231 5.443225,1.35231 6.305174,0 0.400125,-0.62734 0.280718,-1.45542 -0.309857,-2.29408 -0.572818,-0.81342 -1.54186,-1.57317 -2.692066,-2.11784 -1.147412,-0.54347 -2.396503,-0.83828 -3.482348,-0.82723 z"
       style="color:#000000;clip-rule:nonzero;display:inline;overflow:visible;visibility:visible;opacity:1;isolation:auto;mix-blend-mode:normal;color-interpolation:sRGB;color-interpolation-filters:linearRGB;solid-color:#000000;solid-opacity:1;vector-effect:none;fill:#222525;fill-opacity:1;fill-rule:nonzero;stroke:none;stroke-width:72.52490997;stroke-linecap:round;stroke-linejoin:round;stroke-miterlimit:4;stroke-dasharray:none;stroke-dashoffset:0;stroke-opacity:1;marker:none;paint-order:normal;color-rendering:auto;image-rendering:auto;shape-rendering:auto;text-rendering:auto;enable-background:accumulate" />
    <path
       style="color:#000000;clip-rule:nonzero;display:inline;overflow:visible;visibility:visible;opacity:1;isolation:auto;mix-blend-mode:normal;color-interpolation:sRGB;color-interpolation-filters:linearRGB;solid-color:#000000;solid-opacity:1;vector-effect:none;fill:#ee6b11;fill-opacity:1;fill-rule:nonzero;stroke:none;stroke-width:72.5249176;stroke-linecap:round;stroke-linejoin:round;stroke-miterlimit:4;stroke-dasharray:none;stroke-dashoffset:0;stroke-opacity:1;marker:none;paint-order:normal;color-rendering:auto;image-rendering:auto;shape-rendering:auto;text-rendering:auto;enable-background:accumulate"
       d="m 16.534214,-201.91668 c -1.132499,0.0185 -2.399181,0.35377 -3.142856,0.83883 -0.460759,0.30053 -0.670742,0.62788 -0.575462,0.90745 0.09689,0.28427 0.500116,0.49513 1.122142,0.58209 0.625119,0.0875 1.410677,0.0417 2.175656,-0.12616 0.75758,-0.1663 1.42337,-0.43845 1.850303,-0.7503 0.419262,-0.30626 0.572641,-0.62504 0.433801,-0.88974 -0.136618,-0.26052 -0.545795,-0.44851 -1.137621,-0.52455 -0.222402,-0.0287 -0.467752,-0.0419 -0.725963,-0.0376 z m -4.006038,3.54568 c -0.7501,9e-5 -1.601135,0.14362 -2.377071,0.40282 -0.7872204,0.26295 -1.4411908,0.62549 -1.812677,1.01146 -0.7989526,0.83001 -0.1027814,1.53139 1.5869216,1.5316 1.6900554,-2.1e-4 3.6230814,-0.70159 4.2915574,-1.5316 0.310905,-0.38597 0.300197,-0.7485 -0.0221,-1.01146 -0.317716,-0.25918 -0.916669,-0.40273 -1.6666,-0.40282 z m -2.6714421,4.42214 c -0.2860975,-0.001 -0.588038,0.0193 -0.9008016,0.0597 -0.921463,0.11871 -1.8864863,0.41088 -2.6891332,0.81892 -0.8189422,0.41632 -1.4092837,0.92157 -1.6334084,1.40765 -0.4835372,1.04875 0.8357364,1.69524 2.943673,1.40101 1.0029969,-0.13991 2.0287354,-0.47853 2.8418513,-0.934 0.79622,-0.44602 1.317221,-0.96366 1.458554,-1.43864 0.232567,-0.7803 -0.596903,-1.30752 -2.0185141,-1.31469 z m -0.573227,5.23221 v 0.002 c -0.6083027,0.009 -1.2759058,0.1089 -1.9476905,0.29437 -2.2537571,0.62265 -4.0876062,2.06283 -4.0370314,3.25352 0.02459,0.59337 0.5232446,1.03604 1.3921497,1.21952 0.8753078,0.18482 2.0343352,0.0885 3.204842,-0.26559 2.3848873,-0.722 4.0544443,-2.24826 3.8001993,-3.37747 -0.150705,-0.66978 -0.964718,-1.08686 -2.1601633,-1.12215 -0.08272,-0.003 -0.1666471,-0.005 -0.2523058,-0.005 z m 2.8307781,5.72134 c -1.059146,0.0113 -2.2610641,0.30422 -3.3663972,0.82776 -1.1502225,0.54466 -2.1207532,1.30028 -2.693564,2.11369 -0.5905908,0.83866 -0.7099849,1.66784 -0.3098627,2.29518 0.861936,1.35231 3.7530726,1.35231 6.3056399,0 1.184434,-0.62734 2.100673,-1.45652 2.558554,-2.29518 0.444113,-0.81341 0.42061,-1.56903 -0.04873,-2.11369 -0.467649,-0.54309 -1.347037,-0.83839 -2.445687,-0.82776 z"
       id="path1495"
       inkscape:connector-curvature="0"
       sodipodi:nodetypes="ccccccccccccccccccccccccccccccccscccccscccccc" />
  </g>
  <g
     transform="matrix(0.77857717,0,0,0.77857717,-804.83366,156.86316)"
     id="g1818" />
  <g
     id="g889"
     transform="translate(-9.75,-15.209897)">
    <text
       inkscape:export-ydpi="298.48499"
       inkscape:export-xdpi="298.48499"
       id="text1373"
       y="76.240242"
       x="13.680927"
       style="font-style:normal;font-variant:normal;font-weight:normal;font-stretch:expanded;font-size:8.27631378px;line-height:100%;font-family:'Zurich Ex BT';-inkscape-font-specification:'Zurich Ex BT, Expanded';font-variant-ligatures:normal;font-variant-position:normal;font-variant-caps:normal;font-variant-numeric:normal;font-variant-alternates:normal;font-feature-settings:normal;text-indent:0;text-align:start;text-decoration:none;text-decoration-line:none;text-decoration-style:solid;text-decoration-color:#000000;letter-spacing:-0.63652426px;word-spacing:0px;text-transform:none;writing-mode:lr-tb;direction:ltr;text-orientation:mixed;dominant-baseline:auto;baseline-shift:baseline;text-anchor:start;white-space:normal;shape-padding:0;opacity:1;vector-effect:none;fill:#ee6b11;fill-opacity:1;stroke:none;stroke-width:1.80449748px;stroke-linecap:butt;stroke-linejoin:miter;stroke-miterlimit:4;stroke-dasharray:none;stroke-dashoffset:0;stroke-opacity:1"
       xml:space="preserve"><tspan
         style="font-style:normal;font-variant:normal;font-weight:normal;font-stretch:expanded;font-size:8.27631378px;font-family:'Zurich Ex BT';-inkscape-font-specification:'Zurich Ex BT, Expanded';font-variant-ligatures:normal;font-variant-caps:normal;font-variant-numeric:normal;font-feature-settings:normal;text-align:start;letter-spacing:-0.63652426px;writing-mode:lr-tb;text-anchor:start;fill:#ee6b11;fill-opacity:1;stroke-width:1.80449748px"
         y="76.240242"
         x="13.680927"
         id="tspan1371"
         sodipodi:role="line"
         dx="0 0 0 -0.33094898 0.082737245">Audio</tspan></text>
    <text
       xml:space="preserve"
       style="font-style:normal;font-variant:normal;font-weight:normal;font-stretch:expanded;font-size:8.27631378px;line-height:100%;font-family:'Zurich Ex BT';-inkscape-font-specification:'Zurich Ex BT, Expanded';font-variant-ligatures:normal;font-variant-position:normal;font-variant-caps:normal;font-variant-numeric:normal;font-variant-alternates:normal;font-feature-settings:normal;text-indent:0;text-align:end;text-decoration:none;text-decoration-line:none;text-decoration-style:solid;text-decoration-color:#000000;letter-spacing:-0.63652426px;word-spacing:0px;text-transform:none;writing-mode:lr-tb;direction:ltr;text-orientation:mixed;dominant-baseline:auto;baseline-shift:baseline;text-anchor:end;white-space:normal;shape-padding:0;opacity:1;vector-effect:none;fill:#222525;fill-opacity:1;stroke:none;stroke-width:1.80449748px;stroke-linecap:butt;stroke-linejoin:miter;stroke-miterlimit:4;stroke-dasharray:none;stroke-dashoffset:0;stroke-opacity:1"
       x="71.206673"
       y="76.240242"
       id="text883"
       inkscape:export-xdpi="298.48499"
       inkscape:export-ydpi="298.48499"><tspan
         dx="0 -2.8284276 1.9960018e-09 -0.07272394 -0.07272394 -0.07272394 -1.9960018e-09 0"
         sodipodi:role="line"
         id="tspan881"
         x="70.570145"
         y="76.240242"
         style="font-style:normal;font-variant:normal;font-weight:normal;font-stretch:expanded;font-size:8.27631378px;font-family:'Zurich Ex BT';-inkscape-font-specification:'Zurich Ex BT, Expanded';font-variant-ligatures:normal;font-variant-caps:normal;font-variant-numeric:normal;font-feature-settings:normal;text-align:end;letter-spacing:-0.63652426px;writing-mode:lr-tb;text-anchor:end;fill:#222525;fill-opacity:1;stroke-width:1.80449748px"> Widgets</tspan></text>
  </g>
</svg>
